<svg width="280" height="83" viewBox="0 0 280 83" fill="none" xmlns="http://www.w3.org/2000/svg">
<g clip-path="url(#clip0_6673_2373)">
<path d="M270.909 30.7624C270.909 30.1832 271.016 29.639 271.236 29.1247C271.451 28.6104 271.758 28.156 272.157 27.7566C272.551 27.3571 273.032 27.0426 273.59 26.8129C274.147 26.5832 274.777 26.4634 275.477 26.4634C276.178 26.4634 276.808 26.5782 277.365 26.8129C277.928 27.0426 278.399 27.3621 278.787 27.7566C279.176 28.156 279.478 28.6104 279.688 29.1247C279.898 29.639 280.005 30.1832 280.005 30.7624C280.005 31.3416 279.898 31.8909 279.688 32.4052C279.478 32.9195 279.176 33.3788 278.787 33.7733C278.399 34.1677 277.923 34.4873 277.365 34.717C276.808 34.9466 276.178 35.0665 275.477 35.0665C274.777 35.0665 274.152 34.9516 273.59 34.717C273.027 34.4873 272.551 34.1727 272.157 33.7733C271.763 33.3738 271.456 32.9195 271.236 32.4052C271.016 31.8909 270.909 31.3466 270.909 30.7624ZM271.779 30.7624C271.779 31.2667 271.866 31.7361 272.045 32.1705C272.224 32.6099 272.474 32.9894 272.807 33.3089C273.134 33.6285 273.528 33.8831 273.984 34.0629C274.439 34.2426 274.935 34.3325 275.477 34.3325C276.02 34.3325 276.511 34.2426 276.961 34.0629C277.411 33.8831 277.795 33.6335 278.117 33.3089C278.44 32.9894 278.69 32.6099 278.869 32.1705C279.048 31.7311 279.135 31.2617 279.135 30.7624C279.135 30.2631 279.048 29.7938 278.869 29.3544C278.69 28.915 278.44 28.5355 278.117 28.216C277.795 27.8964 277.406 27.6467 276.961 27.462C276.511 27.2822 276.02 27.1924 275.477 27.1924C274.935 27.1924 274.439 27.2822 273.984 27.462C273.528 27.6417 273.139 27.8914 272.807 28.216C272.474 28.5355 272.224 28.915 272.045 29.3544C271.866 29.7938 271.779 30.2631 271.779 30.7624ZM277.314 29.8387C277.314 30.1233 277.232 30.363 277.069 30.5627C276.905 30.7624 276.69 30.9172 276.424 31.0371L277.728 32.6748H276.286L275.181 31.2268H275.084V32.6748H273.876V28.6054H275.713C276.173 28.6054 276.557 28.7103 276.859 28.925C277.161 29.1347 277.314 29.4443 277.314 29.8387ZM276.107 29.9336C276.107 29.639 275.907 29.4892 275.513 29.4892H275.078V30.4529H275.355C275.58 30.4529 275.759 30.4129 275.897 30.328C276.035 30.2432 276.107 30.1133 276.107 29.9336Z" fill="white"/>
<path d="M66.7884 53.9953C63.2993 53.9953 60.3168 52.792 57.8355 50.3803C55.3645 47.9587 54.1316 45.0477 54.1316 41.6424C54.1316 38.2371 55.3645 35.3162 57.8355 32.9045C60.3168 30.4829 63.2993 29.2695 66.7884 29.2695C69.6584 29.2695 72.2369 30.1234 74.5186 31.831C74.9688 32.1755 75.2348 32.6249 75.3167 33.1791C75.3883 33.7433 75.245 34.2526 74.892 34.702C74.539 35.1514 74.0786 35.411 73.5107 35.4809C72.9326 35.5508 72.4108 35.416 71.9504 35.0815C70.4361 33.9381 68.7171 33.3689 66.7935 33.3689C64.4658 33.3689 62.4757 34.1777 60.8181 35.7905C59.1606 37.4033 58.3369 39.3556 58.3369 41.6374C58.3369 43.9193 59.1657 45.8516 60.8181 47.4694C62.4706 49.0821 64.4658 49.891 66.7935 49.891C68.9934 49.891 70.8965 49.177 72.5029 47.744C72.9275 47.3645 73.4289 47.1848 74.0121 47.2097C74.5902 47.2347 75.0762 47.4594 75.465 47.8838C75.8538 48.2982 76.038 48.7875 76.0124 49.3568C75.9869 49.921 75.7617 50.3953 75.3371 50.7748C72.9122 52.9218 70.0677 53.9903 66.7935 53.9903" fill="white"/>
<path d="M66.7884 53.9953C63.2993 53.9953 60.3168 52.792 57.8355 50.3803C55.3645 47.9587 54.1316 45.0477 54.1316 41.6424C54.1316 38.2371 55.3645 35.3162 57.8355 32.9045C60.3168 30.4829 63.2993 29.2695 66.7884 29.2695C69.6584 29.2695 72.2369 30.1234 74.5186 31.831C74.9688 32.1755 75.2348 32.6249 75.3167 33.1791C75.3883 33.7433 75.245 34.2526 74.892 34.702C74.539 35.1514 74.0786 35.411 73.5107 35.4809C72.9326 35.5508 72.4108 35.416 71.9504 35.0815C70.4361 33.9381 68.7171 33.3689 66.7935 33.3689C64.4658 33.3689 62.4757 34.1777 60.8181 35.7905C59.1606 37.4033 58.3369 39.3556 58.3369 41.6374C58.3369 43.9193 59.1657 45.8516 60.8181 47.4694C62.4706 49.0821 64.4658 49.891 66.7935 49.891C68.9934 49.891 70.8965 49.177 72.5029 47.744C72.9275 47.3645 73.4289 47.1848 74.0121 47.2097C74.5902 47.2347 75.0762 47.4594 75.465 47.8838C75.8538 48.2982 76.038 48.7875 76.0124 49.3568C75.9869 49.921 75.7617 50.3953 75.3371 50.7748C72.9122 52.9218 70.0677 53.9903 66.7935 53.9903L66.7884 53.9953Z" stroke="white" stroke-linecap="round" stroke-linejoin="round"/>
<path d="M96.0363 53.995C92.5268 53.995 89.5288 52.7767 87.0476 50.3451C84.5561 47.9234 83.3079 44.9975 83.3079 41.5722C83.3079 38.147 84.5561 35.216 87.0476 32.7844C89.5391 30.3528 92.5268 29.1494 96.0363 29.1494C99.5458 29.1494 102.549 30.3627 105.04 32.7844C107.522 35.216 108.765 38.147 108.765 41.5722C108.765 44.9975 107.522 47.9234 105.04 50.3451C102.544 52.7767 99.5458 53.995 96.0363 53.995ZM96.0363 33.2338C93.683 33.2338 91.6775 34.0476 90.0097 35.6754C88.3317 37.3131 87.4927 39.2804 87.4927 41.5772C87.4927 43.874 88.3317 45.8313 90.0097 47.4591C91.6775 49.0968 93.683 49.9157 96.0363 49.9157C98.3896 49.9157 100.405 49.0968 102.083 47.4591C103.751 45.8313 104.585 43.874 104.585 41.5772C104.585 39.2804 103.751 37.3131 102.083 35.6754C100.405 34.0476 98.3896 33.2338 96.0363 33.2338Z" fill="white"/>
<path d="M96.0363 53.995C92.5268 53.995 89.5288 52.7767 87.0476 50.3451C84.5561 47.9234 83.3079 44.9975 83.3079 41.5722C83.3079 38.147 84.5561 35.216 87.0476 32.7844C89.5391 30.3528 92.5268 29.1494 96.0363 29.1494C99.5458 29.1494 102.549 30.3627 105.04 32.7844C107.522 35.216 108.765 38.147 108.765 41.5722C108.765 44.9975 107.522 47.9234 105.04 50.3451C102.544 52.7767 99.5458 53.995 96.0363 53.995ZM96.0363 33.2338C93.683 33.2338 91.6775 34.0476 90.0097 35.6754C88.3317 37.3131 87.4927 39.2804 87.4927 41.5772C87.4927 43.874 88.3317 45.8313 90.0097 47.4591C91.6775 49.0968 93.683 49.9157 96.0363 49.9157C98.3896 49.9157 100.405 49.0968 102.083 47.4591C103.751 45.8313 104.585 43.874 104.585 41.5772C104.585 39.2804 103.751 37.3131 102.083 35.6754C100.405 34.0476 98.3896 33.2338 96.0363 33.2338Z" stroke="white" stroke-linecap="round" stroke-linejoin="round"/>
<path d="M135.613 53.2162H135.593V53.2012L122.849 37.1983V51.9579C122.849 52.5221 122.644 53.0015 122.23 53.3959C121.826 53.8004 121.34 54.0001 120.756 54.0001C120.173 54.0001 119.687 53.8004 119.283 53.3959C118.869 53.0015 118.664 52.5271 118.664 51.9579V31.2266C118.664 30.7872 118.792 30.3977 119.053 30.0482C119.314 29.6887 119.657 29.4441 120.081 29.3043C120.496 29.1545 120.92 29.1445 121.355 29.2693C121.78 29.3941 122.128 29.6338 122.399 29.9783L135.142 46.0012V31.2266C135.142 30.6624 135.342 30.183 135.746 29.7886C136.15 29.3941 136.657 29.1844 137.235 29.1844C137.813 29.1844 138.304 29.3841 138.708 29.7886C139.123 30.183 139.327 30.6574 139.327 31.2266V51.9879C139.327 51.9879 139.322 52.0478 139.307 52.0927V52.1776C139.307 52.1776 139.302 52.2375 139.291 52.2825C139.291 52.3274 139.286 52.3624 139.271 52.3873L139.251 52.4722C139.24 52.5271 139.225 52.5621 139.215 52.5771C139.215 52.5871 139.205 52.617 139.179 52.662C139.169 52.7069 139.153 52.7418 139.143 52.7668L139.107 52.8517L139.056 52.9366C139.056 52.9366 139.025 52.9965 139.005 53.0414L138.954 53.0914C138.954 53.0914 138.918 53.1513 138.882 53.1962L138.831 53.2661L138.759 53.336C138.724 53.381 138.698 53.4059 138.688 53.4059C138.688 53.4159 138.662 53.4409 138.616 53.4758C138.58 53.5108 138.55 53.5357 138.529 53.5457C138.565 53.5208 138.56 53.5308 138.509 53.5657L138.488 53.5857C138.396 53.6556 138.304 53.7105 138.222 53.7604H138.207C138.115 53.8054 138.018 53.8453 137.926 53.8803C137.88 53.9052 137.864 53.9102 137.89 53.9002C137.798 53.9352 137.695 53.9602 137.588 53.9701L137.537 53.9851C137.429 53.9951 137.332 54.0051 137.235 54.0051C137.163 54.0051 137.087 54.0001 137.005 53.9851C137.03 53.9951 137.015 53.9951 136.969 53.9851C136.897 53.9751 136.841 53.9652 136.79 53.9502C136.8 53.9602 136.78 53.9552 136.718 53.9352C136.657 53.9252 136.611 53.9102 136.575 53.9002C136.565 53.9002 136.539 53.8903 136.503 53.8653C136.442 53.8553 136.396 53.8353 136.36 53.8154C136.334 53.8154 136.314 53.8054 136.288 53.7804C136.242 53.7554 136.201 53.7405 136.166 53.7305C136.13 53.7055 136.104 53.6905 136.094 53.6805C136.058 53.6556 136.017 53.6306 135.971 53.5957C135.935 53.5707 135.91 53.5557 135.9 53.5457C135.843 53.5008 135.787 53.4559 135.741 53.4059L135.726 53.3909V53.371C135.68 53.326 135.654 53.3011 135.654 53.3011C135.654 53.3011 135.634 53.2761 135.603 53.2312" fill="white"/>
<path d="M135.613 53.2162H135.593V53.2012L122.849 37.1983V51.9579C122.849 52.5221 122.644 53.0015 122.23 53.3959C121.826 53.8004 121.34 54.0001 120.756 54.0001C120.173 54.0001 119.687 53.8004 119.283 53.3959C118.869 53.0015 118.664 52.5271 118.664 51.9579V31.2266C118.664 30.7872 118.792 30.3977 119.053 30.0482C119.314 29.6887 119.657 29.4441 120.081 29.3043C120.496 29.1545 120.92 29.1445 121.355 29.2693C121.78 29.3941 122.128 29.6338 122.399 29.9783L135.142 46.0012V31.2266C135.142 30.6624 135.342 30.183 135.746 29.7886C136.15 29.3941 136.657 29.1844 137.235 29.1844C137.813 29.1844 138.304 29.3841 138.708 29.7886C139.123 30.183 139.327 30.6574 139.327 31.2266V51.9879C139.327 51.9879 139.322 52.0478 139.307 52.0927V52.1776C139.307 52.1776 139.302 52.2375 139.291 52.2825C139.291 52.3274 139.286 52.3624 139.271 52.3873L139.251 52.4722C139.24 52.5271 139.225 52.5621 139.215 52.5771C139.215 52.5871 139.205 52.617 139.179 52.662C139.169 52.7069 139.153 52.7418 139.143 52.7668L139.107 52.8517L139.056 52.9366C139.056 52.9366 139.025 52.9965 139.005 53.0414L138.954 53.0914C138.954 53.0914 138.918 53.1513 138.882 53.1962L138.831 53.2661L138.759 53.336C138.724 53.381 138.698 53.4059 138.688 53.4059C138.688 53.4159 138.662 53.4409 138.616 53.4758C138.58 53.5108 138.55 53.5357 138.529 53.5457C138.565 53.5208 138.56 53.5308 138.509 53.5657L138.488 53.5857C138.396 53.6556 138.304 53.7105 138.222 53.7604H138.207C138.115 53.8054 138.018 53.8453 137.926 53.8803C137.88 53.9052 137.864 53.9102 137.89 53.9002C137.798 53.9352 137.695 53.9602 137.588 53.9701L137.537 53.9851C137.429 53.9951 137.332 54.0051 137.235 54.0051C137.163 54.0051 137.087 54.0001 137.005 53.9851C137.03 53.9951 137.015 53.9951 136.969 53.9851C136.897 53.9751 136.841 53.9651 136.79 53.9502C136.8 53.9602 136.78 53.9552 136.718 53.9352C136.657 53.9252 136.611 53.9102 136.575 53.9002C136.565 53.9002 136.539 53.8903 136.503 53.8653C136.442 53.8553 136.396 53.8353 136.36 53.8154C136.334 53.8154 136.314 53.8054 136.288 53.7804C136.242 53.7554 136.201 53.7405 136.166 53.7305C136.13 53.7055 136.104 53.6905 136.094 53.6805C136.058 53.6556 136.017 53.6306 135.971 53.5957C135.935 53.5707 135.91 53.5557 135.9 53.5457C135.843 53.5008 135.787 53.4559 135.741 53.4059L135.726 53.3909V53.371C135.68 53.326 135.654 53.3011 135.654 53.3011C135.654 53.3011 135.634 53.2761 135.603 53.2312L135.613 53.2162Z" stroke="white" stroke-linecap="round" stroke-linejoin="round"/>
<path d="M167.608 53.2162H167.588V53.2012L154.844 37.1983V51.9579C154.844 52.5221 154.639 53.0015 154.225 53.3959C153.821 53.8004 153.335 54.0001 152.752 54.0001C152.168 54.0001 151.682 53.8004 151.278 53.3959C150.864 53.0015 150.659 52.5271 150.659 51.9579V31.2266C150.659 30.7872 150.787 30.3977 151.048 30.0482C151.309 29.6887 151.652 29.4441 152.076 29.3043C152.491 29.1545 152.915 29.1445 153.35 29.2693C153.775 29.3941 154.123 29.6338 154.394 29.9783L167.138 46.0012V31.2266C167.138 30.6624 167.337 30.183 167.741 29.7886C168.145 29.3941 168.652 29.1844 169.23 29.1844C169.808 29.1844 170.299 29.3841 170.703 29.7886C171.118 30.183 171.322 30.6574 171.322 31.2266V51.9879C171.322 51.9879 171.317 52.0478 171.302 52.0927V52.1776C171.302 52.1776 171.297 52.2375 171.287 52.2825C171.287 52.3274 171.281 52.3624 171.266 52.3873L171.246 52.4722C171.235 52.5271 171.22 52.5621 171.21 52.5771C171.21 52.5871 171.2 52.617 171.174 52.6619C171.164 52.7069 171.148 52.7418 171.138 52.7668L171.102 52.8517L171.051 52.9366C171.051 52.9366 171.021 52.9965 171 53.0414L170.949 53.0914C170.949 53.0914 170.913 53.1513 170.877 53.1962L170.826 53.2661L170.755 53.336C170.719 53.381 170.693 53.4059 170.683 53.4059C170.683 53.4159 170.657 53.4409 170.611 53.4758C170.575 53.5108 170.545 53.5357 170.524 53.5457C170.56 53.5208 170.555 53.5308 170.504 53.5657L170.483 53.5857C170.391 53.6556 170.299 53.7105 170.217 53.7604H170.202C170.11 53.8054 170.013 53.8453 169.921 53.8803C169.875 53.9052 169.859 53.9102 169.885 53.9002C169.793 53.9352 169.69 53.9602 169.583 53.9701L169.532 53.9851C169.424 53.9951 169.327 54.0051 169.23 54.0051C169.158 54.0051 169.082 54.0001 169 53.9851C169.025 53.9951 169.01 53.9951 168.964 53.9851C168.892 53.9751 168.836 53.9651 168.785 53.9502C168.795 53.9602 168.775 53.9552 168.713 53.9352C168.652 53.9252 168.606 53.9102 168.57 53.9002C168.56 53.9002 168.534 53.8903 168.498 53.8653C168.437 53.8553 168.391 53.8353 168.355 53.8154C168.33 53.8154 168.309 53.8054 168.284 53.7804C168.238 53.7554 168.197 53.7405 168.161 53.7305C168.125 53.7055 168.099 53.6905 168.089 53.6805C168.053 53.6556 168.012 53.6306 167.966 53.5957C167.931 53.5707 167.905 53.5557 167.895 53.5457C167.838 53.5008 167.782 53.4559 167.736 53.4059L167.721 53.3909V53.371C167.675 53.326 167.649 53.3011 167.649 53.3011C167.649 53.3011 167.629 53.2761 167.598 53.2312" fill="white"/>
<path d="M167.608 53.2162H167.588V53.2012L154.844 37.1983V51.9579C154.844 52.5221 154.639 53.0015 154.225 53.3959C153.821 53.8004 153.335 54.0001 152.752 54.0001C152.168 54.0001 151.682 53.8004 151.278 53.3959C150.864 53.0015 150.659 52.5271 150.659 51.9579V31.2266C150.659 30.7872 150.787 30.3977 151.048 30.0482C151.309 29.6887 151.652 29.4441 152.076 29.3043C152.491 29.1545 152.915 29.1445 153.35 29.2693C153.775 29.3941 154.123 29.6338 154.394 29.9783L167.138 46.0012V31.2266C167.138 30.6624 167.337 30.183 167.741 29.7886C168.145 29.3941 168.652 29.1844 169.23 29.1844C169.808 29.1844 170.299 29.3841 170.703 29.7886C171.118 30.183 171.322 30.6574 171.322 31.2266V51.9879C171.322 51.9879 171.317 52.0478 171.302 52.0927V52.1776C171.302 52.1776 171.297 52.2375 171.287 52.2825C171.287 52.3274 171.281 52.3624 171.266 52.3873L171.246 52.4722C171.235 52.5271 171.22 52.5621 171.21 52.5771C171.21 52.5871 171.2 52.617 171.174 52.6619C171.164 52.7069 171.148 52.7418 171.138 52.7668L171.102 52.8517L171.051 52.9366C171.051 52.9366 171.021 52.9965 171 53.0414L170.949 53.0914C170.949 53.0914 170.913 53.1513 170.877 53.1962L170.826 53.2661L170.755 53.336C170.719 53.381 170.693 53.4059 170.683 53.4059C170.683 53.4159 170.657 53.4409 170.611 53.4758C170.575 53.5108 170.545 53.5357 170.524 53.5457C170.56 53.5208 170.555 53.5307 170.504 53.5657L170.483 53.5857C170.391 53.6556 170.299 53.7105 170.217 53.7604H170.202C170.11 53.8054 170.013 53.8453 169.921 53.8803C169.875 53.9052 169.859 53.9102 169.885 53.9002C169.793 53.9352 169.69 53.9602 169.583 53.9701L169.532 53.9851C169.424 53.9951 169.327 54.0051 169.23 54.0051C169.158 54.0051 169.082 54.0001 169 53.9851C169.025 53.9951 169.01 53.9951 168.964 53.9851C168.892 53.9751 168.836 53.9651 168.785 53.9502C168.795 53.9602 168.775 53.9552 168.713 53.9352C168.652 53.9252 168.606 53.9102 168.57 53.9002C168.56 53.9002 168.534 53.8903 168.498 53.8653C168.437 53.8553 168.391 53.8353 168.355 53.8154C168.33 53.8154 168.309 53.8054 168.284 53.7804C168.238 53.7554 168.197 53.7405 168.161 53.7305C168.125 53.7055 168.099 53.6905 168.089 53.6805C168.053 53.6556 168.012 53.6306 167.966 53.5957C167.931 53.5707 167.905 53.5557 167.895 53.5457C167.838 53.5008 167.782 53.4559 167.736 53.4059L167.721 53.3909V53.371C167.675 53.326 167.649 53.3011 167.649 53.3011C167.649 53.3011 167.629 53.2761 167.598 53.2312L167.608 53.2162Z" stroke="white" stroke-linecap="round" stroke-linejoin="round"/>
<path d="M197.567 49.8961C198.145 49.8961 198.636 50.1008 199.04 50.5003C199.455 50.9047 199.659 51.389 199.659 51.9533C199.659 52.5175 199.455 52.9968 199.04 53.3913C198.636 53.7957 198.15 53.9954 197.567 53.9954H184.731C184.153 53.9954 183.662 53.7957 183.258 53.3913C182.843 52.9968 182.639 52.5225 182.639 51.9533V31.2119C182.639 30.6377 182.843 30.1534 183.258 29.7589C183.657 29.3545 184.148 29.1548 184.731 29.1548H184.746L197.562 29.1897C198.14 29.1897 198.636 29.3895 199.051 29.7939C199.455 30.1983 199.654 30.6827 199.654 31.2469C199.654 31.8111 199.45 32.2904 199.035 32.6849C198.631 33.0893 198.145 33.2891 197.562 33.2891H197.541L186.834 33.2541V39.5354H194.564C195.142 39.5354 195.638 39.7302 196.053 40.1246C196.467 40.5291 196.672 41.0134 196.672 41.5776C196.672 42.1418 196.467 42.6262 196.053 43.0306C195.638 43.4251 195.142 43.6198 194.564 43.6198H186.834V49.9011H197.557L197.567 49.8961Z" fill="white"/>
<path d="M197.567 49.8961C198.145 49.8961 198.636 50.1008 199.04 50.5003C199.455 50.9047 199.659 51.389 199.659 51.9533C199.659 52.5175 199.455 52.9968 199.04 53.3913C198.636 53.7957 198.15 53.9954 197.567 53.9954H184.731C184.153 53.9954 183.662 53.7957 183.258 53.3913C182.843 52.9968 182.639 52.5225 182.639 51.9533V31.2119C182.639 30.6377 182.843 30.1534 183.258 29.7589C183.657 29.3545 184.148 29.1548 184.731 29.1548H184.746L197.562 29.1897C198.14 29.1897 198.636 29.3895 199.051 29.7939C199.455 30.1983 199.654 30.6827 199.654 31.2469C199.654 31.8111 199.45 32.2904 199.035 32.6849C198.631 33.0893 198.145 33.2891 197.562 33.2891H197.541L186.834 33.2541V39.5354H194.564C195.142 39.5354 195.638 39.7302 196.053 40.1246C196.467 40.5291 196.672 41.0134 196.672 41.5776C196.672 42.1418 196.467 42.6262 196.053 43.0306C195.638 43.4251 195.142 43.6198 194.564 43.6198H186.834V49.9011H197.557L197.567 49.8961Z" stroke="white" stroke-linecap="round" stroke-linejoin="round"/>
<path d="M213.713 33.2338H208.449C207.871 33.2338 207.374 33.034 206.96 32.6296C206.556 32.2351 206.356 31.7608 206.356 31.1916C206.356 30.6224 206.556 30.148 206.96 29.7536C207.364 29.3591 207.871 29.1494 208.449 29.1494H223.183C223.75 29.1494 224.242 29.3491 224.656 29.7536C225.06 30.148 225.26 30.6224 225.26 31.1916C225.26 31.7608 225.06 32.2351 224.656 32.6296C224.242 33.034 223.75 33.2338 223.183 33.2338H217.898V51.9529C217.898 52.5171 217.688 53.0014 217.279 53.4059C216.875 53.8003 216.389 53.995 215.805 53.995C215.222 53.995 214.736 53.8003 214.332 53.4059C213.918 53.0014 213.713 52.5171 213.713 51.9529V33.2338Z" fill="white"/>
<path d="M213.713 33.2338H208.449C207.871 33.2338 207.374 33.034 206.96 32.6296C206.556 32.2351 206.356 31.7608 206.356 31.1916C206.356 30.6224 206.556 30.148 206.96 29.7536C207.364 29.3591 207.871 29.1494 208.449 29.1494H223.183C223.75 29.1494 224.242 29.3491 224.656 29.7536C225.06 30.148 225.26 30.6224 225.26 31.1916C225.26 31.7608 225.06 32.2351 224.656 32.6296C224.242 33.034 223.75 33.2338 223.183 33.2338H217.898V51.9529C217.898 52.5171 217.688 53.0014 217.279 53.4059C216.875 53.8003 216.389 53.995 215.805 53.995C215.222 53.995 214.736 53.8003 214.332 53.4059C213.918 53.0014 213.713 52.5171 213.713 51.9529V33.2338Z" stroke="white" stroke-linecap="round" stroke-linejoin="round"/>
<path d="M235.619 53.9953C235.041 53.9953 234.55 53.7956 234.146 53.3912C233.731 53.0017 233.527 52.5224 233.527 51.9532V31.3117C233.527 30.7475 233.731 30.2682 234.146 29.8737C234.55 29.4693 235.036 29.2695 235.619 29.2695C236.202 29.2695 236.689 29.4693 237.093 29.8737C237.507 30.2682 237.712 30.7425 237.712 31.3117V51.9532C237.712 52.5174 237.507 52.9967 237.093 53.3912C236.689 53.7956 236.202 53.9953 235.619 53.9953Z" fill="white"/>
<path d="M235.619 53.9953C235.041 53.9953 234.55 53.7956 234.146 53.3912C233.731 53.0017 233.527 52.5224 233.527 51.9532V31.3117C233.527 30.7475 233.731 30.2682 234.146 29.8737C234.55 29.4693 235.036 29.2695 235.619 29.2695C236.202 29.2695 236.689 29.4693 237.093 29.8737C237.507 30.2682 237.712 30.7425 237.712 31.3117V51.9532C237.712 52.5174 237.507 52.9967 237.093 53.3912C236.689 53.7956 236.202 53.9953 235.619 53.9953Z" stroke="white" stroke-linecap="round" stroke-linejoin="round"/>
<path d="M266.213 29.6189C266.683 29.9534 266.97 30.3978 267.062 30.9521C267.154 31.5063 267.036 32.0106 266.709 32.4749L260.063 41.6273L266.709 50.7796C267.041 51.239 267.159 51.7483 267.062 52.3025C266.97 52.8568 266.683 53.2962 266.213 53.6157C265.86 53.8704 265.455 53.9952 265.005 53.9952C264.284 53.9952 263.716 53.7056 263.302 53.1314L257.505 45.1374L251.709 53.1314C251.295 53.7056 250.727 53.9952 250.005 53.9952C249.555 53.9952 249.156 53.8704 248.798 53.6157C248.327 53.2912 248.041 52.8568 247.949 52.3025C247.852 51.7483 247.969 51.244 248.302 50.7796L254.947 41.6273L248.302 32.4749C247.969 32.0156 247.852 31.5063 247.949 30.9521C248.041 30.3978 248.327 29.9534 248.798 29.6189C249.269 29.2943 249.79 29.1795 250.358 29.2744C250.926 29.3792 251.376 29.6539 251.704 30.1032L257.5 38.0972L263.297 30.1032C263.629 29.6539 264.079 29.3792 264.642 29.2744C265.21 29.1845 265.732 29.2993 266.202 29.6189" fill="white"/>
<path d="M266.213 29.6189C266.683 29.9534 266.97 30.3978 267.062 30.9521C267.154 31.5063 267.036 32.0106 266.709 32.4749L260.063 41.6273L266.709 50.7796C267.041 51.239 267.159 51.7483 267.062 52.3025C266.97 52.8568 266.683 53.2962 266.213 53.6157C265.86 53.8704 265.455 53.9952 265.005 53.9952C264.284 53.9952 263.716 53.7056 263.302 53.1314L257.505 45.1374L251.709 53.1314C251.295 53.7056 250.727 53.9952 250.005 53.9952C249.555 53.9952 249.156 53.8704 248.798 53.6157C248.327 53.2912 248.041 52.8568 247.949 52.3025C247.852 51.7483 247.969 51.244 248.302 50.7796L254.947 41.6273L248.302 32.4749C247.969 32.0156 247.852 31.5063 247.949 30.9521C248.041 30.3978 248.327 29.9534 248.798 29.6189C249.269 29.2943 249.79 29.1795 250.358 29.2744C250.926 29.3792 251.376 29.6539 251.704 30.1032L257.5 38.0972L263.297 30.1032C263.629 29.6539 264.079 29.3792 264.642 29.2744C265.21 29.1845 265.732 29.2993 266.202 29.6189H266.213Z" stroke="white" stroke-linecap="round" stroke-linejoin="round"/>
<path d="M37.4281 42.5509C37.1519 42.2812 36.6914 42.2812 36.4152 42.5509L25.5285 53.1762C25.2522 53.4458 25.2522 53.8952 25.5285 54.1648L36.4152 64.7951C36.6966 65.0647 37.1519 65.0647 37.4281 64.7951L48.32 54.1648C48.5962 53.8952 48.5962 53.4458 48.32 53.1762L37.4281 42.5509ZM26.388 54.0899C26.1424 54.0899 25.9429 53.8952 25.9429 53.6555C25.9429 53.4158 26.1424 53.2161 26.388 53.2161C26.6335 53.2161 26.833 53.4108 26.833 53.6555C26.833 53.9002 26.6335 54.0899 26.388 54.0899ZM36.9063 64.4306C36.6607 64.4306 36.4561 64.2359 36.4561 63.9912C36.4561 63.7465 36.6556 63.5568 36.9063 63.5568C37.157 63.5568 37.3514 63.7515 37.3514 63.9912C37.3514 64.2309 37.1519 64.4306 36.9063 64.4306ZM36.9063 43.7792C36.6607 43.7792 36.4561 43.5844 36.4561 43.3398C36.4561 43.0951 36.6556 42.9054 36.9063 42.9054C37.157 42.9054 37.3514 43.1001 37.3514 43.3398C37.3514 43.5794 37.1519 43.7792 36.9063 43.7792ZM47.5474 54.0849C47.3019 54.0849 47.1024 53.8902 47.1024 53.6505C47.1024 53.4108 47.3019 53.2111 47.5474 53.2111C47.793 53.2111 47.9925 53.4058 47.9925 53.6505C47.9925 53.8952 47.793 54.0849 47.5474 54.0849Z" fill="#FCD007"/>
<path d="M36.9236 44.2267L27.2576 53.6606L36.9236 63.0945L46.5895 53.6606L36.9236 44.2267Z" fill="#DFE1E1"/>
<path d="M36.9216 44.2236L27.2576 53.6556H36.9216V44.2236Z" fill="#EDA921"/>
<path d="M36.9216 44.2236L46.5856 53.6556H36.9216V44.2236Z" fill="#FFE266"/>
<path d="M36.9216 63.0877L27.2576 53.6558H36.9216V63.0877Z" fill="#F3C73B"/>
<path d="M36.9216 63.0877L46.5856 53.6558H36.9216V63.0877Z" fill="#FFF7AC"/>
<path d="M35.6539 43.7564L31.8628 47.4565L32.5393 48.1168L36.3304 44.4167L35.6539 43.7564Z" fill="#D39B40"/>
<path d="M30.5228 48.7271L26.7317 52.4272L27.4082 53.0875L31.1993 49.3874L30.5228 48.7271Z" fill="#D39B40"/>
<path d="M43.3425 48.7275L42.666 49.3877L46.4572 53.0878L47.1336 52.4276L43.3425 48.7275Z" fill="#D39B40"/>
<path d="M38.205 43.7577L37.5286 44.418L41.3197 48.1181L41.9962 47.4579L38.205 43.7577Z" fill="#D39B40"/>
<path d="M32.5422 59.2543L31.8657 59.9146L35.6569 63.6147L36.3333 62.9544L32.5422 59.2543Z" fill="#D39B40"/>
<path d="M27.4045 54.2846L26.728 54.9448L30.5192 58.6449L31.1957 57.9847L27.4045 54.2846Z" fill="#D39B40"/>
<path d="M46.4586 54.2847L42.6675 57.9849L43.344 58.6451L47.1351 54.945L46.4586 54.2847Z" fill="#D39B40"/>
<path d="M41.319 59.2589L37.5278 62.959L38.2043 63.6192L41.9955 59.9191L41.319 59.2589Z" fill="#D39B40"/>
<path d="M47.5423 53.2212C47.2967 53.2212 47.0972 53.4159 47.0972 53.6556C47.0972 53.8953 47.2967 54.09 47.5423 54.09C47.7878 54.09 47.9873 53.8953 47.9873 53.6556C47.9873 53.4159 47.7878 53.2212 47.5423 53.2212ZM47.5423 53.8903C47.4092 53.8903 47.3018 53.7854 47.3018 53.6556C47.3018 53.5258 47.4092 53.4209 47.5423 53.4209C47.6753 53.4209 47.7827 53.5258 47.7827 53.6556C47.7827 53.7854 47.6753 53.8903 47.5423 53.8903Z" fill="#EDA921"/>
<path d="M36.9011 63.562C36.6556 63.562 36.4561 63.7567 36.4561 63.9964C36.4561 64.2361 36.6556 64.4308 36.9011 64.4308C37.1467 64.4308 37.3462 64.2361 37.3462 63.9964C37.3462 63.7567 37.1467 63.562 36.9011 63.562ZM36.9011 64.2311C36.7681 64.2311 36.6607 64.1262 36.6607 63.9964C36.6607 63.8666 36.7681 63.7617 36.9011 63.7617C37.0342 63.7617 37.1416 63.8666 37.1416 63.9964C37.1416 64.1262 37.0342 64.2311 36.9011 64.2311Z" fill="#EDA921"/>
<path d="M26.3828 53.2212C26.1373 53.2212 25.9377 53.4159 25.9377 53.6556C25.9377 53.8953 26.1373 54.09 26.3828 54.09C26.6284 54.09 26.8279 53.8953 26.8279 53.6556C26.8279 53.4159 26.6284 53.2212 26.3828 53.2212ZM26.3828 53.8903C26.2498 53.8903 26.1424 53.7854 26.1424 53.6556C26.1424 53.5258 26.2498 53.4209 26.3828 53.4209C26.5158 53.4209 26.6233 53.5258 26.6233 53.6556C26.6233 53.7854 26.5158 53.8903 26.3828 53.8903Z" fill="#EDA921"/>
<path d="M36.9011 42.9155C36.6556 42.9155 36.4561 43.1103 36.4561 43.3499C36.4561 43.5896 36.6556 43.7843 36.9011 43.7843C37.1467 43.7843 37.3462 43.5896 37.3462 43.3499C37.3462 43.1103 37.1467 42.9155 36.9011 42.9155ZM36.9011 43.5846C36.7681 43.5846 36.6607 43.4797 36.6607 43.3499C36.6607 43.2201 36.7681 43.1152 36.9011 43.1152C37.0342 43.1152 37.1416 43.2201 37.1416 43.3499C37.1416 43.4797 37.0342 43.5846 36.9011 43.5846Z" fill="#EDA921"/>
<path d="M12.1093 42.5509C11.8279 42.2812 11.3726 42.2812 11.0963 42.5509L0.209637 53.1812C-0.0666237 53.4508 -0.0666237 53.9002 0.209637 54.1698L11.1015 64.8001C11.3777 65.0697 11.8381 65.0697 12.1144 64.8001L23.0011 54.1698C23.2774 53.9002 23.2774 53.4508 23.0011 53.1812L12.1144 42.5558L12.1093 42.5509ZM1.04353 54.0949C0.797969 54.0949 0.598447 53.9002 0.598447 53.6605C0.598447 53.4208 0.797969 53.2211 1.04353 53.2211C1.2891 53.2211 1.48862 53.4158 1.48862 53.6605C1.48862 53.9052 1.2891 54.0949 1.04353 54.0949ZM11.5619 64.4356C11.3163 64.4356 11.1117 64.2409 11.1117 63.9962C11.1117 63.7515 11.3112 63.5618 11.5619 63.5618C11.8126 63.5618 12.007 63.7565 12.007 63.9962C12.007 64.2359 11.8075 64.4356 11.5619 64.4356ZM11.5619 43.7841C11.3163 43.7841 11.1117 43.5894 11.1117 43.3448C11.1117 43.1001 11.3112 42.9104 11.5619 42.9104C11.8126 42.9104 12.007 43.1051 12.007 43.3448C12.007 43.5844 11.8075 43.7841 11.5619 43.7841ZM22.203 54.0899C21.9575 54.0899 21.7579 53.8952 21.7579 53.6555C21.7579 53.4158 21.9575 53.2161 22.203 53.2161C22.4486 53.2161 22.6481 53.4108 22.6481 53.6555C22.6481 53.9002 22.4486 54.0899 22.203 54.0899Z" fill="#744A9E"/>
<path d="M11.6111 44.2253L1.94507 53.6592L11.6111 63.0931L21.277 53.6592L11.6111 44.2253Z" fill="#DFE1E1"/>
<path d="M10.3414 43.7554L6.55029 47.4556L7.22677 48.1158L11.0179 44.4157L10.3414 43.7554Z" fill="#482564"/>
<path d="M5.20692 48.7296L1.41577 52.4297L2.09224 53.0899L5.88339 49.3898L5.20692 48.7296Z" fill="#482564"/>
<path d="M11.603 44.2236L1.93896 53.6556H11.603V44.2236Z" fill="#532E80"/>
<path d="M11.603 44.2236L21.267 53.6556H11.603V44.2236Z" fill="#9463AA"/>
<path d="M11.603 63.0877L1.93896 53.6558H11.603V63.0877Z" fill="#7A459B"/>
<path d="M11.603 63.0877L21.267 53.6558H11.603V63.0877Z" fill="#B794C5"/>
<path d="M18.0263 48.7299L17.3499 49.3901L21.141 53.0903L21.8175 52.43L18.0263 48.7299Z" fill="#482564"/>
<path d="M12.8889 43.7548L12.2124 44.415L16.0036 48.1152L16.68 47.4549L12.8889 43.7548Z" fill="#482564"/>
<path d="M7.2297 59.2529L6.55322 59.9131L10.3444 63.6132L11.0208 62.953L7.2297 59.2529Z" fill="#482564"/>
<path d="M2.09225 54.2831L1.41577 54.9434L5.20692 58.6435L5.88339 57.9832L2.09225 54.2831Z" fill="#482564"/>
<path d="M21.1376 54.2872L17.3464 57.9873L18.0229 58.6475L21.8141 54.9474L21.1376 54.2872Z" fill="#482564"/>
<path d="M16.0065 59.2579L12.2153 62.958L12.8918 63.6182L16.683 59.9181L16.0065 59.2579Z" fill="#482564"/>
<path d="M22.2031 53.2212C21.9576 53.2212 21.7581 53.4159 21.7581 53.6556C21.7581 53.8953 21.9576 54.09 22.2031 54.09C22.4487 54.09 22.6482 53.8953 22.6482 53.6556C22.6482 53.4159 22.4487 53.2212 22.2031 53.2212ZM22.2031 53.8903C22.0701 53.8903 21.9627 53.7854 21.9627 53.6556C21.9627 53.5258 22.0701 53.4209 22.2031 53.4209C22.3362 53.4209 22.4436 53.5258 22.4436 53.6556C22.4436 53.7854 22.3362 53.8903 22.2031 53.8903Z" fill="#693393"/>
<path d="M11.562 63.562C11.3165 63.562 11.1169 63.7567 11.1169 63.9964C11.1169 64.2361 11.3165 64.4308 11.562 64.4308C11.8076 64.4308 12.0071 64.2361 12.0071 63.9964C12.0071 63.7567 11.8076 63.562 11.562 63.562ZM11.562 64.2311C11.429 64.2311 11.3216 64.1262 11.3216 63.9964C11.3216 63.8666 11.429 63.7617 11.562 63.7617C11.695 63.7617 11.8025 63.8666 11.8025 63.9964C11.8025 64.1262 11.695 64.2311 11.562 64.2311Z" fill="#693393"/>
<path d="M1.04372 53.2212C0.798154 53.2212 0.598633 53.4159 0.598633 53.6556C0.598633 53.8953 0.798154 54.09 1.04372 54.09C1.28928 54.09 1.4888 53.8953 1.4888 53.6556C1.4888 53.4159 1.28928 53.2212 1.04372 53.2212ZM1.04372 53.8903C0.910705 53.8903 0.80327 53.7854 0.80327 53.6556C0.80327 53.5258 0.910705 53.4209 1.04372 53.4209C1.17673 53.4209 1.28417 53.5258 1.28417 53.6556C1.28417 53.7854 1.17673 53.8903 1.04372 53.8903Z" fill="#693393"/>
<path d="M11.562 42.9155C11.3165 42.9155 11.1169 43.1103 11.1169 43.3499C11.1169 43.5896 11.3165 43.7843 11.562 43.7843C11.8076 43.7843 12.0071 43.5896 12.0071 43.3499C12.0071 43.1103 11.8076 42.9155 11.562 42.9155ZM11.562 43.5846C11.429 43.5846 11.3216 43.4797 11.3216 43.3499C11.3216 43.2201 11.429 43.1152 11.562 43.1152C11.695 43.1152 11.8025 43.2201 11.8025 43.3499C11.8025 43.4797 11.695 43.5846 11.562 43.5846Z" fill="#693393"/>
<path d="M12.1093 18.2045C11.8279 17.9299 11.3726 17.9299 11.0963 18.2045L0.209637 28.8298C-0.0666237 29.0994 -0.0666237 29.5488 0.209637 29.8184L11.1015 40.4437C11.3777 40.7184 11.8381 40.7184 12.1144 40.4437L23.0011 29.8184C23.2774 29.5488 23.2774 29.0994 23.0011 28.8298L12.1093 18.2045ZM1.04353 29.7286C0.797969 29.7286 0.598447 29.5338 0.598447 29.2942C0.598447 29.0545 0.797969 28.8548 1.04353 28.8548C1.2891 28.8548 1.48862 29.0495 1.48862 29.2942C1.48862 29.5388 1.2891 29.7286 1.04353 29.7286ZM11.5619 40.0693C11.3163 40.0693 11.1117 39.8745 11.1117 39.6299C11.1117 39.3852 11.3112 39.1955 11.5619 39.1955C11.8126 39.1955 12.007 39.3902 12.007 39.6299C12.007 39.8695 11.8075 40.0693 11.5619 40.0693ZM11.5619 19.4178C11.3163 19.4178 11.1117 19.2231 11.1117 18.9784C11.1117 18.7338 11.3112 18.544 11.5619 18.544C11.8126 18.544 12.007 18.7388 12.007 18.9784C12.007 19.2181 11.8075 19.4178 11.5619 19.4178ZM22.203 29.7236C21.9575 29.7236 21.7579 29.5288 21.7579 29.2892C21.7579 29.0495 21.9575 28.8498 22.203 28.8498C22.4486 28.8498 22.6481 29.0445 22.6481 29.2892C22.6481 29.5338 22.4486 29.7236 22.203 29.7236Z" fill="#0088CB"/>
<path d="M11.6081 19.8713L1.94214 29.3052L11.6081 38.7391L21.2741 29.3052L11.6081 19.8713Z" fill="#DFE1E1"/>
<path d="M10.3422 19.4049L6.55103 23.105L7.2275 23.7652L11.0186 20.0651L10.3422 19.4049Z" fill="#00467F"/>
<path d="M5.20765 24.379L1.4165 28.0791L2.09298 28.7393L5.88413 25.0392L5.20765 24.379Z" fill="#00467F"/>
<path d="M11.603 19.8774L1.93896 29.3094H11.603V19.8774Z" fill="#00528A"/>
<path d="M11.603 19.8774L21.267 29.3094H11.603V19.8774Z" fill="#37A7DE"/>
<path d="M11.603 38.7415L1.93896 29.3096H11.603V38.7415Z" fill="#007BC1"/>
<path d="M11.603 38.7415L21.267 29.3096H11.603V38.7415Z" fill="#95D4F5"/>
<path d="M18.0236 24.3808L17.3472 25.041L21.1383 28.7411L21.8148 28.0809L18.0236 24.3808Z" fill="#00467F"/>
<path d="M12.8859 19.4057L12.2095 20.0659L16.0006 23.766L16.6771 23.1058L12.8859 19.4057Z" fill="#00467F"/>
<path d="M7.22677 34.9037L6.55029 35.564L10.3414 39.2641L11.0179 38.6039L7.22677 34.9037Z" fill="#00467F"/>
<path d="M2.08932 29.9291L1.41284 30.5894L5.20399 34.2895L5.88047 33.6292L2.08932 29.9291Z" fill="#00467F"/>
<path d="M21.1347 29.9332L17.3435 33.6333L18.02 34.2935L21.8111 30.5934L21.1347 29.9332Z" fill="#00467F"/>
<path d="M16.0036 34.9039L12.2124 38.604L12.8889 39.2642L16.68 35.5641L16.0036 34.9039Z" fill="#00467F"/>
<path d="M22.2031 28.855C21.9576 28.855 21.7581 29.0497 21.7581 29.2894C21.7581 29.529 21.9576 29.7238 22.2031 29.7238C22.4487 29.7238 22.6482 29.529 22.6482 29.2894C22.6482 29.0497 22.4487 28.855 22.2031 28.855ZM22.2031 29.5241C22.0701 29.5241 21.9627 29.4192 21.9627 29.2894C21.9627 29.1596 22.0701 29.0547 22.2031 29.0547C22.3362 29.0547 22.4436 29.1596 22.4436 29.2894C22.4436 29.4192 22.3362 29.5241 22.2031 29.5241Z" fill="#006EB6"/>
<path d="M11.562 39.1958C11.3165 39.1958 11.1169 39.3905 11.1169 39.6302C11.1169 39.8699 11.3165 40.0646 11.562 40.0646C11.8076 40.0646 12.0071 39.8699 12.0071 39.6302C12.0071 39.3905 11.8076 39.1958 11.562 39.1958ZM11.562 39.8649C11.429 39.8649 11.3216 39.76 11.3216 39.6302C11.3216 39.5004 11.429 39.3955 11.562 39.3955C11.695 39.3955 11.8025 39.5004 11.8025 39.6302C11.8025 39.76 11.695 39.8649 11.562 39.8649Z" fill="#006EB6"/>
<path d="M1.04372 28.855C0.798154 28.855 0.598633 29.0497 0.598633 29.2894C0.598633 29.529 0.798154 29.7238 1.04372 29.7238C1.28928 29.7238 1.4888 29.529 1.4888 29.2894C1.4888 29.0497 1.28928 28.855 1.04372 28.855ZM1.04372 29.5241C0.910705 29.5241 0.80327 29.4192 0.80327 29.2894C0.80327 29.1596 0.910705 29.0547 1.04372 29.0547C1.17673 29.0547 1.28417 29.1596 1.28417 29.2894C1.28417 29.4192 1.17673 29.5241 1.04372 29.5241Z" fill="#006EB6"/>
<path d="M11.562 18.5493C11.3165 18.5493 11.1169 18.744 11.1169 18.9837C11.1169 19.2234 11.3165 19.4181 11.562 19.4181C11.8076 19.4181 12.0071 19.2234 12.0071 18.9837C12.0071 18.744 11.8076 18.5493 11.562 18.5493ZM11.562 19.2184C11.429 19.2184 11.3216 19.1135 11.3216 18.9837C11.3216 18.8539 11.429 18.749 11.562 18.749C11.695 18.749 11.8025 18.8539 11.8025 18.9837C11.8025 19.1135 11.695 19.2184 11.562 19.2184Z" fill="#006EB6"/>
<path d="M37.4281 18.2045C37.1519 17.9299 36.6914 17.9299 36.4152 18.2045L25.5234 28.8348C25.2471 29.1044 25.2471 29.5538 25.5234 29.8234L36.4152 40.4487C36.6914 40.7234 37.1519 40.7234 37.4281 40.4487L48.3148 29.8234C48.5911 29.5538 48.5911 29.1044 48.3148 28.8348L37.4281 18.2045ZM26.3777 29.7286C26.1322 29.7286 25.9326 29.5338 25.9326 29.2942C25.9326 29.0545 26.1322 28.8548 26.3777 28.8548C26.6233 28.8548 26.8228 29.0495 26.8228 29.2942C26.8228 29.5388 26.6233 29.7286 26.3777 29.7286ZM36.8961 40.0693C36.6505 40.0693 36.4459 39.8745 36.4459 39.6299C36.4459 39.3852 36.6454 39.1955 36.8961 39.1955C37.1468 39.1955 37.3412 39.3902 37.3412 39.6299C37.3412 39.8695 37.1416 40.0693 36.8961 40.0693ZM36.8961 19.4178C36.6505 19.4178 36.4459 19.2231 36.4459 18.9784C36.4459 18.7338 36.6454 18.544 36.8961 18.544C37.1468 18.544 37.3412 18.7388 37.3412 18.9784C37.3412 19.2181 37.1416 19.4178 36.8961 19.4178ZM47.5372 29.7236C47.2916 29.7236 47.0921 29.5288 47.0921 29.2892C47.0921 29.0495 47.2916 28.8498 47.5372 28.8498C47.7828 28.8498 47.9823 29.0445 47.9823 29.2892C47.9823 29.5338 47.7828 29.7236 47.5372 29.7236Z" fill="#00B16E"/>
<path d="M36.9206 19.8727L27.2546 29.3066L36.9206 38.7405L46.5866 29.3066L36.9206 19.8727Z" fill="#DFE1E1"/>
<path d="M35.6547 19.4107L31.8635 23.1108L32.54 23.7711L36.3311 20.0709L35.6547 19.4107Z" fill="#2C6248"/>
<path d="M30.5236 24.3814L26.7324 28.0815L27.4089 28.7418L31.2 25.0417L30.5236 24.3814Z" fill="#2C6248"/>
<path d="M36.9216 19.8774L27.2576 29.3094H36.9216V19.8774Z" fill="#008B47"/>
<path d="M36.9216 19.8774L46.5856 29.3094H36.9216V19.8774Z" fill="#42BB8D"/>
<path d="M36.9216 38.7415L27.2576 29.3096H36.9216V38.7415Z" fill="#00AB67"/>
<path d="M36.9216 38.7415L46.5856 29.3096H36.9216V38.7415Z" fill="#96D2B6"/>
<path d="M43.3396 24.3783L42.6631 25.0386L46.4542 28.7387L47.1307 28.0785L43.3396 24.3783Z" fill="#2C6248"/>
<path d="M38.2072 19.4032L37.5308 20.0635L41.3219 23.7636L41.9984 23.1034L38.2072 19.4032Z" fill="#2C6248"/>
<path d="M32.5393 34.9052L31.8628 35.5654L35.6539 39.2656L36.3304 38.6053L32.5393 34.9052Z" fill="#2C6248"/>
<path d="M27.4069 29.9301L26.7305 30.5903L30.5216 34.2905L31.1981 33.6302L27.4069 29.9301Z" fill="#2C6248"/>
<path d="M46.4557 29.9356L42.6646 33.6357L43.341 34.296L47.1322 30.5959L46.4557 29.9356Z" fill="#2C6248"/>
<path d="M41.316 34.9097L37.5249 38.6099L38.2014 39.2701L41.9925 35.57L41.316 34.9097Z" fill="#2C6248"/>
<path d="M47.532 28.855C47.2864 28.855 47.0869 29.0497 47.0869 29.2894C47.0869 29.529 47.2864 29.7238 47.532 29.7238C47.7776 29.7238 47.9771 29.529 47.9771 29.2894C47.9771 29.0497 47.7776 28.855 47.532 28.855ZM47.532 29.5241C47.399 29.5241 47.2916 29.4192 47.2916 29.2894C47.2916 29.1596 47.399 29.0547 47.532 29.0547C47.665 29.0547 47.7724 29.1596 47.7724 29.2894C47.7724 29.4192 47.665 29.5241 47.532 29.5241Z" fill="#00984E"/>
<path d="M36.8909 39.1958C36.6453 39.1958 36.4458 39.3905 36.4458 39.6302C36.4458 39.8699 36.6453 40.0646 36.8909 40.0646C37.1365 40.0646 37.336 39.8699 37.336 39.6302C37.336 39.3905 37.1365 39.1958 36.8909 39.1958ZM36.8909 39.8649C36.7579 39.8649 36.6504 39.76 36.6504 39.6302C36.6504 39.5004 36.7579 39.3955 36.8909 39.3955C37.0239 39.3955 37.1313 39.5004 37.1313 39.6302C37.1313 39.76 37.0239 39.8649 36.8909 39.8649Z" fill="#00984E"/>
<path d="M26.3777 28.855C26.1321 28.855 25.9326 29.0497 25.9326 29.2894C25.9326 29.529 26.1321 29.7238 26.3777 29.7238C26.6233 29.7238 26.8228 29.529 26.8228 29.2894C26.8228 29.0497 26.6233 28.855 26.3777 28.855ZM26.3777 29.5241C26.2447 29.5241 26.1373 29.4192 26.1373 29.2894C26.1373 29.1596 26.2447 29.0547 26.3777 29.0547C26.5107 29.0547 26.6182 29.1596 26.6182 29.2894C26.6182 29.4192 26.5107 29.5241 26.3777 29.5241Z" fill="#00984E"/>
<path d="M36.8909 18.5493C36.6453 18.5493 36.4458 18.744 36.4458 18.9837C36.4458 19.2234 36.6453 19.4181 36.8909 19.4181C37.1365 19.4181 37.336 19.2234 37.336 18.9837C37.336 18.744 37.1365 18.5493 36.8909 18.5493ZM36.8909 19.2184C36.7579 19.2184 36.6504 19.1135 36.6504 18.9837C36.6504 18.8539 36.7579 18.749 36.8909 18.749C37.0239 18.749 37.1313 18.8539 37.1313 18.9837C37.1313 19.1135 37.0239 19.2184 36.8909 19.2184Z" fill="#00984E"/>
<path d="M24.8122 30.373C24.5308 30.0983 24.0755 30.0983 23.7992 30.373L12.9074 41.0033C12.6311 41.2729 12.6311 41.7223 12.9074 41.9919L23.7992 52.6172C24.0755 52.8868 24.5359 52.8868 24.8122 52.6172L35.6989 41.9919C35.9751 41.7223 35.9751 41.2729 35.6989 41.0033L24.8122 30.373ZM13.7464 41.897C13.5008 41.897 13.3013 41.7023 13.3013 41.4626C13.3013 41.223 13.5008 41.0232 13.7464 41.0232C13.992 41.0232 14.1915 41.218 14.1915 41.4626C14.1915 41.7073 13.992 41.897 13.7464 41.897ZM24.2648 52.2377C24.0192 52.2377 23.8146 52.043 23.8146 51.7983C23.8146 51.5537 24.0141 51.3639 24.2648 51.3639C24.5154 51.3639 24.7098 51.5587 24.7098 51.7983C24.7098 52.038 24.5103 52.2377 24.2648 52.2377ZM24.2648 31.5863C24.0192 31.5863 23.8146 31.3915 23.8146 31.1469C23.8146 30.9022 24.0141 30.7125 24.2648 30.7125C24.5154 30.7125 24.7098 30.9072 24.7098 31.1469C24.7098 31.3866 24.5103 31.5863 24.2648 31.5863ZM34.9059 41.892C34.6603 41.892 34.4608 41.6973 34.4608 41.4576C34.4608 41.218 34.6603 41.0182 34.9059 41.0182C35.1515 41.0182 35.351 41.213 35.351 41.4576C35.351 41.7023 35.1515 41.892 34.9059 41.892Z" fill="#D52A2C"/>
<path d="M24.3056 32.0441L14.6396 41.478L24.3056 50.9119L33.9716 41.478L24.3056 32.0441Z" fill="#DFE1E1"/>
<path d="M24.3058 32.0454L14.6367 41.4774H24.3058V32.0454Z" fill="#B71C21"/>
<path d="M24.3057 32.0454L33.9697 41.4774H24.3057V32.0454Z" fill="#ED5651"/>
<path d="M24.3058 50.9095L14.6367 41.4775H24.3058V50.9095Z" fill="#DB3033"/>
<path d="M24.3057 50.9095L33.9697 41.4775H24.3057V50.9095Z" fill="#F7A39E"/>
<path d="M23.0363 31.5787L19.2451 35.2788L19.9216 35.939L23.7127 32.2389L23.0363 31.5787Z" fill="#8A1B3E"/>
<path d="M17.9015 36.5528L14.1104 40.2529L14.7868 40.9132L18.578 37.213L17.9015 36.5528Z" fill="#8A1B3E"/>
<path d="M30.7212 36.5531L30.0447 37.2134L33.8358 40.9135L34.5123 40.2533L30.7212 36.5531Z" fill="#8A1B3E"/>
<path d="M25.5922 31.5746L24.9158 32.2349L28.7069 35.935L29.3834 35.2748L25.5922 31.5746Z" fill="#8A1B3E"/>
<path d="M19.9243 47.0766L19.2478 47.7368L23.039 51.4369L23.7154 50.7767L19.9243 47.0766Z" fill="#8A1B3E"/>
<path d="M14.792 42.1015L14.1155 42.7617L17.9066 46.4618L18.5831 45.8016L14.792 42.1015Z" fill="#8A1B3E"/>
<path d="M33.841 42.107L30.0498 45.8071L30.7263 46.4674L34.5174 42.7672L33.841 42.107Z" fill="#8A1B3E"/>
<path d="M28.7013 47.0762L24.9102 50.7764L25.5866 51.4366L29.3778 47.7365L28.7013 47.0762Z" fill="#8A1B3E"/>
<path d="M34.9009 41.0283C34.6553 41.0283 34.4558 41.2231 34.4558 41.4627C34.4558 41.7024 34.6553 41.8971 34.9009 41.8971C35.1465 41.8971 35.346 41.7024 35.346 41.4627C35.346 41.2231 35.1465 41.0283 34.9009 41.0283ZM34.9009 41.6974C34.7679 41.6974 34.6604 41.5925 34.6604 41.4627C34.6604 41.3329 34.7679 41.228 34.9009 41.228C35.0339 41.228 35.1413 41.3329 35.1413 41.4627C35.1413 41.5925 35.0339 41.6974 34.9009 41.6974Z" fill="#B71C21"/>
<path d="M24.2649 51.3687C24.0193 51.3687 23.8198 51.5634 23.8198 51.803C23.8198 52.0427 24.0193 52.2374 24.2649 52.2374C24.5105 52.2374 24.71 52.0427 24.71 51.803C24.71 51.5634 24.5105 51.3687 24.2649 51.3687ZM24.2649 52.0377C24.1319 52.0377 24.0245 51.9329 24.0245 51.803C24.0245 51.6732 24.1319 51.5684 24.2649 51.5684C24.3979 51.5684 24.5054 51.6732 24.5054 51.803C24.5054 51.9329 24.3979 52.0377 24.2649 52.0377Z" fill="#B71C21"/>
<path d="M13.7466 41.0283C13.501 41.0283 13.3015 41.2231 13.3015 41.4627C13.3015 41.7024 13.501 41.8971 13.7466 41.8971C13.9922 41.8971 14.1917 41.7024 14.1917 41.4627C14.1917 41.2231 13.9922 41.0283 13.7466 41.0283ZM13.7466 41.6974C13.6136 41.6974 13.5062 41.5925 13.5062 41.4627C13.5062 41.3329 13.6136 41.228 13.7466 41.228C13.8796 41.228 13.987 41.3329 13.987 41.4627C13.987 41.5925 13.8796 41.6974 13.7466 41.6974Z" fill="#B71C21"/>
<path d="M24.2649 30.7173C24.0193 30.7173 23.8198 30.912 23.8198 31.1517C23.8198 31.3914 24.0193 31.5861 24.2649 31.5861C24.5105 31.5861 24.71 31.3914 24.71 31.1517C24.71 30.912 24.5105 30.7173 24.2649 30.7173ZM24.2649 31.3864C24.1319 31.3864 24.0245 31.2815 24.0245 31.1517C24.0245 31.0219 24.1319 30.917 24.2649 30.917C24.3979 30.917 24.5054 31.0219 24.5054 31.1517C24.5054 31.2815 24.3979 31.3864 24.2649 31.3864Z" fill="#B71C21"/>
</g>
<defs>
<clipPath id="clip0_6673_2373">
<rect width="280" height="47" fill="white" transform="translate(0 18)"/>
</clipPath>
</defs>
</svg>
