<svg width="238" height="40" viewBox="0 0 238 40" fill="none" xmlns="http://www.w3.org/2000/svg">
<g clip-path="url(#clip0_6507_2921)">
<path d="M230.273 10.8617C230.273 10.3687 230.364 9.90553 230.551 9.46783C230.734 9.03014 230.995 8.64344 231.334 8.30349C231.669 7.96353 232.077 7.69582 232.551 7.50034C233.025 7.30487 233.56 7.20288 234.156 7.20288C234.752 7.20288 235.287 7.30062 235.761 7.50034C236.239 7.69582 236.639 7.96778 236.969 8.30349C237.3 8.64344 237.557 9.03014 237.735 9.46783C237.913 9.90553 238.004 10.3687 238.004 10.8617C238.004 11.3546 237.913 11.822 237.735 12.2597C237.557 12.6974 237.3 13.0884 236.969 13.4241C236.639 13.7598 236.235 14.0317 235.761 14.2272C235.287 14.4227 234.752 14.5247 234.156 14.5247C233.56 14.5247 233.03 14.4269 232.551 14.2272C232.073 14.0317 231.669 13.764 231.334 13.4241C230.999 13.0841 230.738 12.6974 230.551 12.2597C230.364 11.822 230.273 11.3588 230.273 10.8617ZM231.012 10.8617C231.012 11.2908 231.086 11.6903 231.238 12.06C231.39 12.4339 231.603 12.7569 231.886 13.0289C232.164 13.3008 232.499 13.5176 232.886 13.6705C233.273 13.8235 233.695 13.9 234.156 13.9C234.617 13.9 235.034 13.8235 235.417 13.6705C235.8 13.5176 236.126 13.3051 236.4 13.0289C236.674 12.7569 236.887 12.4339 237.039 12.06C237.191 11.686 237.265 11.2866 237.265 10.8617C237.265 10.4367 237.191 10.0373 237.039 9.66331C236.887 9.28936 236.674 8.9664 236.4 8.69443C236.126 8.42247 235.795 8.21 235.417 8.05277C235.034 7.89979 234.617 7.8233 234.156 7.8233C233.695 7.8233 233.273 7.89979 232.886 8.05277C232.499 8.20575 232.169 8.41822 231.886 8.69443C231.603 8.9664 231.39 9.28936 231.238 9.66331C231.086 10.0373 231.012 10.4367 231.012 10.8617ZM235.717 10.0755C235.717 10.3177 235.648 10.5217 235.508 10.6917C235.369 10.8617 235.187 10.9934 234.96 11.0954L236.069 12.4892H234.843L233.904 11.2568H233.821V12.4892H232.795V9.02589H234.356C234.747 9.02589 235.073 9.11513 235.33 9.29786C235.587 9.47633 235.717 9.7398 235.717 10.0755ZM234.691 10.1562C234.691 9.90553 234.521 9.77804 234.186 9.77804H233.817V10.5982H234.052C234.243 10.5982 234.395 10.5642 234.513 10.4919C234.63 10.4197 234.691 10.3092 234.691 10.1562Z" fill="#263655"/>
<path d="M56.7703 30.6343C53.8045 30.6343 51.2694 29.6102 49.1603 27.5577C47.06 25.4967 46.012 23.0193 46.012 20.1212C46.012 17.2231 47.06 14.7371 49.1603 12.6847C51.2694 10.6237 53.8045 9.59106 56.7703 9.59106C59.2098 9.59106 61.4014 10.3177 63.3409 11.771C63.7236 12.0642 63.9497 12.4467 64.0193 12.9184C64.0801 13.3986 63.9584 13.832 63.6583 14.2145C63.3583 14.5969 62.9669 14.8179 62.4842 14.8774C61.9928 14.9369 61.5493 14.8221 61.1579 14.5374C59.8708 13.5643 58.4097 13.0799 56.7746 13.0799C54.796 13.0799 53.1044 13.7683 51.6955 15.1408C50.2866 16.5134 49.5865 18.1749 49.5865 20.1169C49.5865 22.0589 50.2909 23.7035 51.6955 25.0803C53.1001 26.4529 54.796 27.1413 56.7746 27.1413C58.6445 27.1413 60.2621 26.5336 61.6276 25.314C61.9885 24.991 62.4147 24.8381 62.9104 24.8593C63.4018 24.8806 63.8149 25.0718 64.1454 25.433C64.4759 25.7857 64.6324 26.2021 64.6107 26.6866C64.5889 27.1668 64.3976 27.5705 64.0367 27.8934C61.9755 29.7207 59.5577 30.6301 56.7746 30.6301" fill="#18274F"/>
<path d="M56.7703 30.6343C53.8045 30.6343 51.2694 29.6102 49.1603 27.5577C47.06 25.4967 46.012 23.0193 46.012 20.1212C46.012 17.2231 47.06 14.7371 49.1603 12.6847C51.2694 10.6237 53.8045 9.59106 56.7703 9.59106C59.2098 9.59106 61.4014 10.3177 63.3409 11.771C63.7236 12.0642 63.9497 12.4467 64.0193 12.9184C64.0801 13.3986 63.9584 13.832 63.6583 14.2145C63.3583 14.5969 62.9669 14.8179 62.4842 14.8774C61.9928 14.9369 61.5493 14.8221 61.1579 14.5374C59.8708 13.5643 58.4097 13.0799 56.7746 13.0799C54.796 13.0799 53.1044 13.7683 51.6955 15.1408C50.2866 16.5134 49.5865 18.1749 49.5865 20.1169C49.5865 22.0589 50.2909 23.7035 51.6955 25.0803C53.1001 26.4529 54.796 27.1413 56.7746 27.1413C58.6445 27.1413 60.2621 26.5336 61.6276 25.314C61.9885 24.991 62.4147 24.8381 62.9104 24.8593C63.4018 24.8806 63.8149 25.0718 64.1454 25.433C64.4759 25.7857 64.6324 26.2021 64.6107 26.6866C64.5889 27.1668 64.3976 27.5705 64.0367 27.8934C61.9755 29.7207 59.5577 30.6301 56.7746 30.6301L56.7703 30.6343Z" stroke="#18274F" stroke-linecap="round" stroke-linejoin="round"/>
<path d="M81.6307 30.6342C78.6476 30.6342 76.0993 29.5974 73.9903 27.5279C71.8726 25.4669 70.8115 22.9767 70.8115 20.0616C70.8115 17.1465 71.8726 14.6521 73.9903 12.5826C76.108 10.5131 78.6476 9.48901 81.6307 9.48901C84.6138 9.48901 87.1664 10.5216 89.2841 12.5826C91.3932 14.6521 92.4499 17.1465 92.4499 20.0616C92.4499 22.9767 91.3932 25.4669 89.2841 27.5279C87.162 29.5974 84.6138 30.6342 81.6307 30.6342ZM81.6307 12.9651C79.6304 12.9651 77.9257 13.6577 76.5081 15.043C75.0818 16.4369 74.3686 18.1111 74.3686 20.0659C74.3686 22.0206 75.0818 23.6864 76.5081 25.0717C77.9257 26.4655 79.6304 27.1624 81.6307 27.1624C83.631 27.1624 85.3444 26.4655 86.7707 25.0717C88.1883 23.6864 88.8971 22.0206 88.8971 20.0659C88.8971 18.1111 88.1883 16.4369 86.7707 15.043C85.3444 13.6577 83.631 12.9651 81.6307 12.9651Z" fill="#18274F"/>
<path d="M81.6307 30.6342C78.6476 30.6342 76.0993 29.5974 73.9903 27.5279C71.8726 25.4669 70.8115 22.9767 70.8115 20.0616C70.8115 17.1465 71.8726 14.6521 73.9903 12.5826C76.108 10.5131 78.6476 9.48901 81.6307 9.48901C84.6138 9.48901 87.1664 10.5216 89.2841 12.5826C91.3932 14.6521 92.4499 17.1465 92.4499 20.0616C92.4499 22.9767 91.3932 25.4669 89.2841 27.5279C87.162 29.5974 84.6138 30.6342 81.6307 30.6342ZM81.6307 12.9651C79.6304 12.9651 77.9257 13.6577 76.5081 15.043C75.0818 16.4369 74.3686 18.1111 74.3686 20.0659C74.3686 22.0206 75.0818 23.6864 76.5081 25.0717C77.9257 26.4655 79.6304 27.1624 81.6307 27.1624C83.631 27.1624 85.3444 26.4655 86.7707 25.0717C88.1883 23.6864 88.8971 22.0206 88.8971 20.0659C88.8971 18.1111 88.1883 16.4369 86.7707 15.043C85.3444 13.6577 83.631 12.9651 81.6307 12.9651Z" stroke="#18274F" stroke-linecap="round" stroke-linejoin="round"/>
<path d="M115.271 29.9713H115.254V29.9585L104.422 16.3391V28.9004C104.422 29.3806 104.248 29.7885 103.895 30.1242C103.552 30.4684 103.139 30.6384 102.643 30.6384C102.147 30.6384 101.734 30.4684 101.391 30.1242C101.038 29.7885 100.865 29.3848 100.865 28.9004V11.2567C100.865 10.8828 100.973 10.5513 101.195 10.2538C101.417 9.94789 101.708 9.73967 102.069 9.62068C102.421 9.4932 102.782 9.4847 103.152 9.59094C103.513 9.69717 103.808 9.90115 104.039 10.1944L114.871 23.8308V11.2567C114.871 10.7765 115.041 10.3686 115.384 10.0329C115.728 9.69717 116.158 9.5187 116.65 9.5187C117.141 9.5187 117.559 9.68867 117.902 10.0329C118.254 10.3686 118.428 10.7723 118.428 11.2567V28.9259C118.428 28.9259 118.424 28.9769 118.411 29.0151V29.0874C118.411 29.0874 118.407 29.1384 118.398 29.1766C118.398 29.2149 118.393 29.2446 118.38 29.2659L118.363 29.3381C118.354 29.3848 118.341 29.4146 118.333 29.4273C118.333 29.4358 118.324 29.4613 118.302 29.4996C118.293 29.5378 118.28 29.5676 118.272 29.5888L118.241 29.6611L118.198 29.7333C118.198 29.7333 118.172 29.7843 118.154 29.8225L118.111 29.865C118.111 29.865 118.08 29.916 118.05 29.9543L118.006 30.0138L117.946 30.0732C117.915 30.1115 117.893 30.1327 117.885 30.1327C117.885 30.1412 117.863 30.1625 117.824 30.1922C117.793 30.222 117.767 30.2432 117.75 30.2517C117.78 30.2305 117.776 30.239 117.732 30.2687L117.715 30.2857C117.637 30.3452 117.559 30.392 117.489 30.4345H117.476C117.398 30.4727 117.315 30.5067 117.237 30.5364C117.198 30.5577 117.185 30.5619 117.206 30.5534C117.128 30.5832 117.041 30.6044 116.95 30.6129L116.906 30.6257C116.815 30.6342 116.732 30.6427 116.65 30.6427C116.589 30.6427 116.524 30.6384 116.454 30.6257C116.476 30.6342 116.463 30.6342 116.424 30.6257C116.363 30.6172 116.315 30.6087 116.271 30.5959C116.28 30.6044 116.263 30.6002 116.211 30.5832C116.158 30.5747 116.119 30.5619 116.089 30.5534C116.08 30.5534 116.058 30.5449 116.028 30.5237C115.976 30.5152 115.937 30.4982 115.906 30.4812C115.884 30.4812 115.867 30.4727 115.845 30.4515C115.806 30.4302 115.771 30.4175 115.741 30.409C115.71 30.3877 115.689 30.375 115.68 30.3665C115.65 30.3452 115.615 30.324 115.576 30.2942C115.545 30.273 115.523 30.2602 115.515 30.2517C115.467 30.2135 115.419 30.1752 115.38 30.1327L115.367 30.12V30.103C115.328 30.0647 115.306 30.0435 115.306 30.0435C115.306 30.0435 115.289 30.0223 115.263 29.984" fill="#18274F"/>
<path d="M115.271 29.9713H115.254V29.9585L104.422 16.3391V28.9004C104.422 29.3806 104.248 29.7885 103.895 30.1242C103.552 30.4684 103.139 30.6384 102.643 30.6384C102.147 30.6384 101.734 30.4684 101.391 30.1242C101.038 29.7885 100.865 29.3848 100.865 28.9004V11.2567C100.865 10.8828 100.973 10.5513 101.195 10.2538C101.417 9.94789 101.708 9.73967 102.069 9.62068C102.421 9.4932 102.782 9.4847 103.152 9.59094C103.513 9.69717 103.808 9.90115 104.039 10.1944L114.871 23.8308V11.2567C114.871 10.7765 115.041 10.3686 115.384 10.0329C115.728 9.69717 116.158 9.5187 116.65 9.5187C117.141 9.5187 117.559 9.68867 117.902 10.0329C118.254 10.3686 118.428 10.7723 118.428 11.2567V28.9259C118.428 28.9259 118.424 28.9769 118.411 29.0151V29.0874C118.411 29.0874 118.407 29.1384 118.398 29.1766C118.398 29.2149 118.393 29.2446 118.38 29.2659L118.363 29.3381C118.354 29.3848 118.341 29.4146 118.333 29.4273C118.333 29.4358 118.324 29.4613 118.302 29.4996C118.293 29.5378 118.28 29.5676 118.272 29.5888L118.241 29.6611L118.198 29.7333C118.198 29.7333 118.172 29.7843 118.154 29.8225L118.111 29.865C118.111 29.865 118.08 29.916 118.05 29.9543L118.006 30.0138L117.946 30.0732C117.915 30.1115 117.893 30.1327 117.885 30.1327C117.885 30.1412 117.863 30.1625 117.824 30.1922C117.793 30.222 117.767 30.2432 117.75 30.2517C117.78 30.2305 117.776 30.239 117.732 30.2687L117.715 30.2857C117.637 30.3452 117.559 30.392 117.489 30.4345H117.476C117.398 30.4727 117.315 30.5067 117.237 30.5364C117.198 30.5577 117.185 30.5619 117.206 30.5534C117.128 30.5832 117.041 30.6044 116.95 30.6129L116.906 30.6257C116.815 30.6342 116.732 30.6427 116.65 30.6427C116.589 30.6427 116.524 30.6384 116.454 30.6257C116.476 30.6342 116.463 30.6342 116.424 30.6257C116.363 30.6172 116.315 30.6087 116.271 30.5959C116.28 30.6044 116.263 30.6002 116.211 30.5832C116.158 30.5747 116.119 30.5619 116.089 30.5534C116.08 30.5534 116.058 30.5449 116.028 30.5237C115.976 30.5152 115.937 30.4982 115.906 30.4812C115.884 30.4812 115.867 30.4727 115.845 30.4514C115.806 30.4302 115.771 30.4175 115.741 30.409C115.71 30.3877 115.689 30.375 115.68 30.3665C115.65 30.3452 115.615 30.324 115.576 30.2942C115.545 30.273 115.523 30.2602 115.515 30.2517C115.467 30.2135 115.419 30.1752 115.38 30.1327L115.367 30.12V30.103C115.328 30.0647 115.306 30.0435 115.306 30.0435C115.306 30.0435 115.289 30.0223 115.263 29.984L115.271 29.9713Z" stroke="#18274F" stroke-linecap="round" stroke-linejoin="round"/>
<path d="M142.467 29.9713H142.449V29.9585L131.617 16.3391V28.9004C131.617 29.3806 131.443 29.7885 131.091 30.1242C130.747 30.4684 130.334 30.6384 129.839 30.6384C129.343 30.6384 128.93 30.4684 128.586 30.1242C128.234 29.7885 128.06 29.3848 128.06 28.9004V11.2567C128.06 10.8828 128.169 10.5513 128.391 10.2538C128.612 9.94789 128.904 9.73967 129.265 9.62068C129.617 9.4932 129.978 9.4847 130.347 9.59094C130.708 9.69717 131.004 9.90115 131.235 10.1944L142.067 23.8308V11.2567C142.067 10.7765 142.236 10.3686 142.58 10.0329C142.923 9.69717 143.354 9.5187 143.845 9.5187C144.337 9.5187 144.754 9.68867 145.098 10.0329C145.45 10.3686 145.624 10.7723 145.624 11.2567V28.9259C145.624 28.9259 145.619 28.9769 145.606 29.0151V29.0874C145.606 29.0874 145.602 29.1384 145.593 29.1766C145.593 29.2149 145.589 29.2446 145.576 29.2659L145.559 29.3381C145.55 29.3848 145.537 29.4146 145.528 29.4273C145.528 29.4358 145.519 29.4613 145.498 29.4996C145.489 29.5378 145.476 29.5676 145.467 29.5888L145.437 29.6611L145.393 29.7333C145.393 29.7333 145.367 29.7843 145.35 29.8225L145.306 29.865C145.306 29.865 145.276 29.916 145.246 29.9543L145.202 30.0138L145.141 30.0732C145.111 30.1115 145.089 30.1327 145.08 30.1327C145.08 30.1412 145.059 30.1625 145.019 30.1922C144.989 30.222 144.963 30.2432 144.945 30.2517C144.976 30.2305 144.972 30.239 144.928 30.2687L144.911 30.2857C144.832 30.3452 144.754 30.392 144.685 30.4345H144.671C144.593 30.4727 144.511 30.5067 144.432 30.5364C144.393 30.5577 144.38 30.5619 144.402 30.5534C144.324 30.5832 144.237 30.6044 144.145 30.6129L144.102 30.6257C144.011 30.6342 143.928 30.6427 143.845 30.6427C143.784 30.6427 143.719 30.6384 143.65 30.6257C143.671 30.6342 143.658 30.6342 143.619 30.6257C143.558 30.6172 143.51 30.6087 143.467 30.5959C143.476 30.6044 143.458 30.6002 143.406 30.5832C143.354 30.5747 143.315 30.5619 143.284 30.5534C143.276 30.5534 143.254 30.5449 143.223 30.5237C143.171 30.5152 143.132 30.4982 143.102 30.4812C143.08 30.4812 143.063 30.4727 143.041 30.4515C143.002 30.4302 142.967 30.4175 142.936 30.409C142.906 30.3877 142.884 30.375 142.876 30.3665C142.845 30.3452 142.81 30.324 142.771 30.2942C142.741 30.273 142.719 30.2602 142.71 30.2517C142.662 30.2135 142.615 30.1752 142.575 30.1327L142.562 30.12V30.103C142.523 30.0647 142.502 30.0435 142.502 30.0435C142.502 30.0435 142.484 30.0223 142.458 29.984" fill="#18274F"/>
<path d="M142.467 29.9713H142.449V29.9585L131.617 16.3391V28.9004C131.617 29.3806 131.443 29.7885 131.091 30.1242C130.747 30.4684 130.334 30.6384 129.839 30.6384C129.343 30.6384 128.93 30.4684 128.586 30.1242C128.234 29.7885 128.06 29.3848 128.06 28.9004V11.2567C128.06 10.8828 128.169 10.5513 128.391 10.2538C128.612 9.94789 128.904 9.73967 129.265 9.62068C129.617 9.4932 129.978 9.4847 130.347 9.59094C130.708 9.69717 131.004 9.90115 131.235 10.1944L142.067 23.8308V11.2567C142.067 10.7765 142.236 10.3686 142.58 10.0329C142.923 9.69717 143.354 9.5187 143.845 9.5187C144.337 9.5187 144.754 9.68867 145.098 10.0329C145.45 10.3686 145.624 10.7723 145.624 11.2567V28.9259C145.624 28.9259 145.619 28.9769 145.606 29.0151V29.0874C145.606 29.0874 145.602 29.1384 145.593 29.1766C145.593 29.2149 145.589 29.2446 145.576 29.2659L145.559 29.3381C145.55 29.3848 145.537 29.4146 145.528 29.4273C145.528 29.4358 145.519 29.4613 145.498 29.4996C145.489 29.5378 145.476 29.5676 145.467 29.5888L145.437 29.6611L145.393 29.7333C145.393 29.7333 145.367 29.7843 145.35 29.8225L145.306 29.865C145.306 29.865 145.276 29.916 145.246 29.9543L145.202 30.0138L145.141 30.0732C145.111 30.1115 145.089 30.1327 145.08 30.1327C145.08 30.1412 145.059 30.1625 145.019 30.1922C144.989 30.222 144.963 30.2432 144.945 30.2517C144.976 30.2305 144.972 30.239 144.928 30.2687L144.911 30.2857C144.832 30.3452 144.754 30.392 144.685 30.4345H144.671C144.593 30.4727 144.511 30.5067 144.432 30.5364C144.393 30.5577 144.38 30.5619 144.402 30.5534C144.324 30.5832 144.237 30.6044 144.145 30.6129L144.102 30.6257C144.011 30.6342 143.928 30.6427 143.845 30.6427C143.784 30.6427 143.719 30.6384 143.65 30.6257C143.671 30.6342 143.658 30.6342 143.619 30.6257C143.558 30.6172 143.51 30.6087 143.467 30.5959C143.476 30.6044 143.458 30.6002 143.406 30.5832C143.354 30.5747 143.315 30.5619 143.284 30.5534C143.276 30.5534 143.254 30.5449 143.223 30.5237C143.171 30.5152 143.132 30.4982 143.102 30.4812C143.08 30.4812 143.063 30.4727 143.041 30.4514C143.002 30.4302 142.967 30.4175 142.936 30.409C142.906 30.3877 142.884 30.375 142.876 30.3665C142.845 30.3452 142.81 30.324 142.771 30.2942C142.741 30.273 142.719 30.2602 142.71 30.2517C142.662 30.2135 142.615 30.1752 142.575 30.1327L142.562 30.12V30.103C142.523 30.0647 142.502 30.0435 142.502 30.0435C142.502 30.0435 142.484 30.0223 142.458 29.984L142.467 29.9713Z" stroke="#18274F" stroke-linecap="round" stroke-linejoin="round"/>
<path d="M167.932 27.1453C168.423 27.1453 168.841 27.3196 169.184 27.6595C169.537 28.0037 169.711 28.4159 169.711 28.8961C169.711 29.3763 169.537 29.7842 169.184 30.12C168.841 30.4642 168.428 30.6341 167.932 30.6341H157.021C156.53 30.6341 156.113 30.4642 155.769 30.12C155.417 29.7842 155.243 29.3806 155.243 28.8961V11.2439C155.243 10.7552 155.417 10.3431 155.769 10.0073C156.108 9.66314 156.526 9.49316 157.021 9.49316H157.035L167.928 9.52291C168.419 9.52291 168.841 9.69289 169.193 10.0371C169.537 10.3813 169.706 10.7935 169.706 11.2737C169.706 11.7539 169.532 12.1618 169.18 12.4975C168.836 12.8417 168.423 13.0117 167.928 13.0117H167.91L158.809 12.982V18.3278H165.379C165.871 18.3278 166.293 18.4935 166.645 18.8292C166.997 19.1734 167.171 19.5856 167.171 20.0658C167.171 20.546 166.997 20.9582 166.645 21.3024C166.293 21.6381 165.871 21.8038 165.379 21.8038H158.809V27.1496H167.923L167.932 27.1453Z" fill="#18274F"/>
<path d="M167.932 27.1453C168.423 27.1453 168.841 27.3196 169.184 27.6595C169.537 28.0037 169.711 28.4159 169.711 28.8961C169.711 29.3763 169.537 29.7842 169.184 30.12C168.841 30.4642 168.428 30.6341 167.932 30.6341H157.021C156.53 30.6341 156.113 30.4642 155.769 30.12C155.417 29.7842 155.243 29.3806 155.243 28.8961V11.2439C155.243 10.7552 155.417 10.3431 155.769 10.0073C156.108 9.66314 156.526 9.49316 157.021 9.49316H157.035L167.928 9.52291C168.419 9.52291 168.841 9.69289 169.193 10.0371C169.537 10.3813 169.706 10.7935 169.706 11.2737C169.706 11.7539 169.532 12.1618 169.18 12.4975C168.836 12.8417 168.423 13.0117 167.928 13.0117H167.91L158.809 12.982V18.3278H165.379C165.871 18.3278 166.293 18.4935 166.645 18.8292C166.997 19.1734 167.171 19.5856 167.171 20.0658C167.171 20.546 166.997 20.9582 166.645 21.3024C166.293 21.6381 165.871 21.8038 165.379 21.8038H158.809V27.1496H167.923L167.932 27.1453Z" stroke="#18274F" stroke-linecap="round" stroke-linejoin="round"/>
<path d="M181.656 12.9651H177.181C176.69 12.9651 176.268 12.7951 175.916 12.4509C175.572 12.1152 175.403 11.7115 175.403 11.227C175.403 10.7426 175.572 10.3389 175.916 10.0032C176.26 9.66749 176.69 9.48901 177.181 9.48901H189.705C190.188 9.48901 190.605 9.65899 190.958 10.0032C191.301 10.3389 191.471 10.7426 191.471 11.227C191.471 11.7115 191.301 12.1152 190.958 12.4509C190.605 12.7951 190.188 12.9651 189.705 12.9651H185.213V28.8962C185.213 29.3764 185.035 29.7886 184.687 30.1328C184.343 30.4685 183.93 30.6342 183.435 30.6342C182.939 30.6342 182.526 30.4685 182.182 30.1328C181.83 29.7886 181.656 29.3764 181.656 28.8962V12.9651Z" fill="#18274F"/>
<path d="M181.656 12.9651H177.181C176.69 12.9651 176.268 12.7951 175.916 12.4509C175.572 12.1152 175.403 11.7115 175.403 11.227C175.403 10.7426 175.572 10.3389 175.916 10.0032C176.26 9.66749 176.69 9.48901 177.181 9.48901H189.705C190.188 9.48901 190.605 9.65899 190.958 10.0032C191.301 10.3389 191.471 10.7426 191.471 11.227C191.471 11.7115 191.301 12.1152 190.958 12.4509C190.605 12.7951 190.188 12.9651 189.705 12.9651H185.213V28.8962C185.213 29.3764 185.035 29.7886 184.687 30.1328C184.343 30.4685 183.93 30.6342 183.435 30.6342C182.939 30.6342 182.526 30.4685 182.182 30.1328C181.83 29.7886 181.656 29.3764 181.656 28.8962V12.9651Z" stroke="#18274F" stroke-linecap="round" stroke-linejoin="round"/>
<path d="M200.276 30.6343C199.785 30.6343 199.368 30.4643 199.024 30.1201C198.672 29.7887 198.498 29.3807 198.498 28.8963V11.3291C198.498 10.8489 198.672 10.441 199.024 10.1052C199.368 9.76104 199.781 9.59106 200.276 9.59106C200.772 9.59106 201.185 9.76104 201.529 10.1052C201.881 10.441 202.055 10.8447 202.055 11.3291V28.8963C202.055 29.3765 201.881 29.7844 201.529 30.1201C201.185 30.4643 200.772 30.6343 200.276 30.6343Z" fill="#18274F"/>
<path d="M200.276 30.6343C199.785 30.6343 199.368 30.4643 199.024 30.1201C198.672 29.7887 198.498 29.3807 198.498 28.8963V11.3291C198.498 10.8489 198.672 10.441 199.024 10.1052C199.368 9.76104 199.781 9.59106 200.276 9.59106C200.772 9.59106 201.185 9.76104 201.529 10.1052C201.881 10.441 202.055 10.8446 202.055 11.3291V28.8963C202.055 29.3765 201.881 29.7844 201.529 30.1201C201.185 30.4643 200.772 30.6343 200.276 30.6343Z" stroke="#18274F" stroke-linecap="round" stroke-linejoin="round"/>
<path d="M226.281 9.88848C226.681 10.1732 226.924 10.5514 227.002 11.0231C227.081 11.4948 226.981 11.924 226.702 12.3192L221.054 20.1084L226.702 27.8976C226.985 28.2886 227.085 28.722 227.002 29.1937C226.924 29.6654 226.681 30.0393 226.281 30.3113C225.981 30.528 225.637 30.6343 225.254 30.6343C224.641 30.6343 224.159 30.3878 223.806 29.8991L218.879 23.0957L213.952 29.8991C213.6 30.3878 213.118 30.6343 212.504 30.6343C212.122 30.6343 211.783 30.528 211.478 30.3113C211.078 30.0351 210.835 29.6654 210.756 29.1937C210.674 28.722 210.774 28.2928 211.056 27.8976L216.705 20.1084L211.056 12.3192C210.774 11.9282 210.674 11.4948 210.756 11.0231C210.835 10.5514 211.078 10.1732 211.478 9.88848C211.878 9.61226 212.322 9.51453 212.804 9.59526C213.287 9.6845 213.67 9.91822 213.948 10.3007L218.875 17.104L223.802 10.3007C224.085 9.91822 224.467 9.6845 224.946 9.59526C225.428 9.51877 225.872 9.61651 226.272 9.88848" fill="#18274F"/>
<path d="M226.281 9.88848C226.681 10.1732 226.924 10.5514 227.002 11.0231C227.081 11.4948 226.981 11.924 226.702 12.3192L221.054 20.1084L226.702 27.8976C226.985 28.2886 227.085 28.722 227.002 29.1937C226.924 29.6654 226.681 30.0393 226.281 30.3113C225.981 30.528 225.637 30.6343 225.254 30.6343C224.641 30.6343 224.159 30.3878 223.806 29.8991L218.879 23.0957L213.952 29.8991C213.6 30.3878 213.118 30.6343 212.504 30.6343C212.122 30.6343 211.783 30.528 211.478 30.3113C211.078 30.0351 210.835 29.6654 210.756 29.1937C210.674 28.722 210.774 28.2928 211.056 27.8976L216.705 20.1084L211.056 12.3192C210.774 11.9282 210.674 11.4948 210.756 11.0231C210.835 10.5514 211.078 10.1732 211.478 9.88848C211.878 9.61226 212.322 9.51453 212.804 9.59526C213.287 9.6845 213.67 9.91822 213.948 10.3007L218.875 17.104L223.802 10.3007C224.085 9.91822 224.467 9.6845 224.946 9.59526C225.428 9.51877 225.872 9.61651 226.272 9.88848H226.281Z" stroke="#18274F" stroke-linecap="round" stroke-linejoin="round"/>
<path d="M31.814 20.8945C31.5792 20.665 31.1878 20.665 30.953 20.8945L21.6993 29.9373C21.4645 30.1668 21.4645 30.5492 21.6993 30.7787L30.953 39.8258C31.1922 40.0553 31.5792 40.0553 31.814 39.8258L41.0721 30.7787C41.3069 30.5492 41.3069 30.1668 41.0721 29.9373L31.814 20.8945ZM22.4299 30.715C22.2211 30.715 22.0515 30.5493 22.0515 30.3453C22.0515 30.1413 22.2211 29.9713 22.4299 29.9713C22.6386 29.9713 22.8082 30.1371 22.8082 30.3453C22.8082 30.5535 22.6386 30.715 22.4299 30.715ZM31.3705 39.5156C31.1617 39.5156 30.9878 39.3498 30.9878 39.1416C30.9878 38.9334 31.1574 38.7719 31.3705 38.7719C31.5835 38.7719 31.7488 38.9376 31.7488 39.1416C31.7488 39.3456 31.5792 39.5156 31.3705 39.5156ZM31.3705 21.9399C31.1617 21.9399 30.9878 21.7741 30.9878 21.5659C30.9878 21.3577 31.1574 21.1962 31.3705 21.1962C31.5835 21.1962 31.7488 21.362 31.7488 21.5659C31.7488 21.7699 31.5792 21.9399 31.3705 21.9399ZM40.4154 30.7107C40.2067 30.7107 40.0371 30.545 40.0371 30.341C40.0371 30.1371 40.2067 29.9671 40.4154 29.9671C40.6242 29.9671 40.7937 30.1328 40.7937 30.341C40.7937 30.5492 40.6242 30.7107 40.4154 30.7107Z" fill="#FCD007"/>
<path d="M31.385 22.3205L23.1689 30.3494L31.385 38.3782L39.6011 30.3494L31.385 22.3205Z" fill="#DFE1E1"/>
<path d="M31.3833 22.3181L23.1689 30.3453H31.3833V22.3181Z" fill="#EDA921"/>
<path d="M31.3833 22.3181L39.5977 30.3453H31.3833V22.3181Z" fill="#FFE266"/>
<path d="M31.3833 38.3724L23.1689 30.3452H31.3833V38.3724Z" fill="#F3C73B"/>
<path d="M31.3833 38.3724L39.5977 30.3452H31.3833V38.3724Z" fill="#FFF7AC"/>
<path d="M30.3057 21.9203L27.0833 25.0693L27.6583 25.6312L30.8807 22.4822L30.3057 21.9203Z" fill="#D39B40"/>
<path d="M25.9444 26.1508L22.7219 29.2998L23.2969 29.8617L26.5194 26.7127L25.9444 26.1508Z" fill="#D39B40"/>
<path d="M36.8411 26.151L36.2661 26.7129L39.4886 29.8619L40.0636 29.3L36.8411 26.151Z" fill="#D39B40"/>
<path d="M32.4742 21.9213L31.8992 22.4832L35.1216 25.6322L35.6967 25.0703L32.4742 21.9213Z" fill="#D39B40"/>
<path d="M27.6607 35.11L27.0857 35.6719L30.3082 38.8209L30.8832 38.259L27.6607 35.11Z" fill="#D39B40"/>
<path d="M23.294 30.8802L22.719 31.4421L25.9415 34.5912L26.5165 34.0293L23.294 30.8802Z" fill="#D39B40"/>
<path d="M39.4898 30.8807L36.2673 34.0298L36.8423 34.5917L40.0648 31.4426L39.4898 30.8807Z" fill="#D39B40"/>
<path d="M35.1212 35.1139L31.8987 38.2629L32.4737 38.8248L35.6962 35.6758L35.1212 35.1139Z" fill="#D39B40"/>
<path d="M40.411 29.9756C40.2023 29.9756 40.0327 30.1413 40.0327 30.3453C40.0327 30.5493 40.2023 30.715 40.411 30.715C40.6198 30.715 40.7894 30.5493 40.7894 30.3453C40.7894 30.1413 40.6198 29.9756 40.411 29.9756ZM40.411 30.545C40.298 30.545 40.2067 30.4558 40.2067 30.3453C40.2067 30.2348 40.298 30.1456 40.411 30.1456C40.5241 30.1456 40.6154 30.2348 40.6154 30.3453C40.6154 30.4558 40.5241 30.545 40.411 30.545Z" fill="#EDA921"/>
<path d="M31.3661 38.7761C31.1574 38.7761 30.9878 38.9419 30.9878 39.1458C30.9878 39.3498 31.1574 39.5155 31.3661 39.5155C31.5748 39.5155 31.7444 39.3498 31.7444 39.1458C31.7444 38.9419 31.5748 38.7761 31.3661 38.7761ZM31.3661 39.3455C31.2531 39.3455 31.1617 39.2563 31.1617 39.1458C31.1617 39.0353 31.2531 38.9461 31.3661 38.9461C31.4792 38.9461 31.5705 39.0353 31.5705 39.1458C31.5705 39.2563 31.4792 39.3455 31.3661 39.3455Z" fill="#EDA921"/>
<path d="M22.4254 29.9756C22.2167 29.9756 22.0471 30.1413 22.0471 30.3453C22.0471 30.5493 22.2167 30.715 22.4254 30.715C22.6342 30.715 22.8038 30.5493 22.8038 30.3453C22.8038 30.1413 22.6342 29.9756 22.4254 29.9756ZM22.4254 30.545C22.3124 30.545 22.2211 30.4558 22.2211 30.3453C22.2211 30.2348 22.3124 30.1456 22.4254 30.1456C22.5385 30.1456 22.6298 30.2348 22.6298 30.3453C22.6298 30.4558 22.5385 30.545 22.4254 30.545Z" fill="#EDA921"/>
<path d="M31.3661 21.2048C31.1574 21.2048 30.9878 21.3706 30.9878 21.5745C30.9878 21.7785 31.1574 21.9442 31.3661 21.9442C31.5748 21.9442 31.7444 21.7785 31.7444 21.5745C31.7444 21.3706 31.5748 21.2048 31.3661 21.2048ZM31.3661 21.7743C31.2531 21.7743 31.1617 21.685 31.1617 21.5745C31.1617 21.464 31.2531 21.3748 31.3661 21.3748C31.4792 21.3748 31.5705 21.464 31.5705 21.5745C31.5705 21.685 31.4792 21.7743 31.3661 21.7743Z" fill="#EDA921"/>
<path d="M10.293 20.8945C10.0539 20.665 9.66683 20.665 9.43201 20.8945L0.178313 29.9416C-0.056508 30.171 -0.056508 30.5535 0.178313 30.783L9.43636 39.83C9.67118 40.0595 10.0625 40.0595 10.2974 39.83L19.5511 30.783C19.7859 30.5535 19.7859 30.171 19.5511 29.9416L10.2974 20.8988L10.293 20.8945ZM0.887125 30.7192C0.678395 30.7192 0.508802 30.5535 0.508802 30.3495C0.508802 30.1456 0.678395 29.9756 0.887125 29.9756C1.09586 29.9756 1.26545 30.1413 1.26545 30.3495C1.26545 30.5577 1.09586 30.7192 0.887125 30.7192ZM9.82773 39.5198C9.619 39.5198 9.44506 39.3541 9.44506 39.1459C9.44506 38.9376 9.61465 38.7762 9.82773 38.7762C10.0408 38.7762 10.206 38.9419 10.206 39.1459C10.206 39.3498 10.0365 39.5198 9.82773 39.5198ZM9.82773 21.9441C9.619 21.9441 9.44506 21.7784 9.44506 21.5702C9.44506 21.362 9.61465 21.2005 9.82773 21.2005C10.0408 21.2005 10.206 21.3662 10.206 21.5702C10.206 21.7741 10.0365 21.9441 9.82773 21.9441ZM18.8727 30.715C18.664 30.715 18.4944 30.5492 18.4944 30.3453C18.4944 30.1413 18.664 29.9713 18.8727 29.9713C19.0814 29.9713 19.251 30.1371 19.251 30.3453C19.251 30.5535 19.0814 30.715 18.8727 30.715Z" fill="#744A9E"/>
<path d="M9.86941 22.3195L1.65332 30.3484L9.86941 38.3772L18.0855 30.3484L9.86941 22.3195Z" fill="#DFE1E1"/>
<path d="M8.79035 21.9193L5.56787 25.0684L6.14288 25.6303L9.36535 22.4812L8.79035 21.9193Z" fill="#482564"/>
<path d="M4.42585 26.1527L1.20337 29.3018L1.77837 29.8637L5.00085 26.7146L4.42585 26.1527Z" fill="#482564"/>
<path d="M9.86259 22.3181L1.64819 30.3453H9.86259V22.3181Z" fill="#532E80"/>
<path d="M9.86255 22.3181L18.0769 30.3453H9.86255V22.3181Z" fill="#9463AA"/>
<path d="M9.86259 38.3724L1.64819 30.3452H9.86259V38.3724Z" fill="#7A459B"/>
<path d="M9.86255 38.3724L18.0769 30.3452H9.86255V38.3724Z" fill="#B794C5"/>
<path d="M15.3226 26.1529L14.7476 26.7148L17.97 29.8639L18.545 29.302L15.3226 26.1529Z" fill="#482564"/>
<path d="M10.9556 21.9191L10.3806 22.481L13.6031 25.63L14.1781 25.0681L10.9556 21.9191Z" fill="#482564"/>
<path d="M6.14532 35.109L5.57031 35.6709L8.79279 38.8199L9.36779 38.258L6.14532 35.109Z" fill="#482564"/>
<path d="M1.77837 30.8793L1.20337 31.4412L4.42585 34.5902L5.00085 34.0283L1.77837 30.8793Z" fill="#482564"/>
<path d="M17.9669 30.8827L14.7444 34.0317L15.3194 34.5936L18.5419 31.4446L17.9669 30.8827Z" fill="#482564"/>
<path d="M13.6055 35.1129L10.3831 38.262L10.9581 38.8239L14.1805 35.6748L13.6055 35.1129Z" fill="#482564"/>
<path d="M18.8727 29.9756C18.664 29.9756 18.4944 30.1413 18.4944 30.3453C18.4944 30.5493 18.664 30.715 18.8727 30.715C19.0814 30.715 19.251 30.5493 19.251 30.3453C19.251 30.1413 19.0814 29.9756 18.8727 29.9756ZM18.8727 30.545C18.7596 30.545 18.6683 30.4558 18.6683 30.3453C18.6683 30.2348 18.7596 30.1456 18.8727 30.1456C18.9858 30.1456 19.0771 30.2348 19.0771 30.3453C19.0771 30.4558 18.9858 30.545 18.8727 30.545Z" fill="#693393"/>
<path d="M9.82779 38.7761C9.61906 38.7761 9.44946 38.9419 9.44946 39.1458C9.44946 39.3498 9.61906 39.5155 9.82779 39.5155C10.0365 39.5155 10.2061 39.3498 10.2061 39.1458C10.2061 38.9419 10.0365 38.7761 9.82779 38.7761ZM9.82779 39.3455C9.71472 39.3455 9.6234 39.2563 9.6234 39.1458C9.6234 39.0353 9.71472 38.9461 9.82779 38.9461C9.94085 38.9461 10.0322 39.0353 10.0322 39.1458C10.0322 39.2563 9.94085 39.3455 9.82779 39.3455Z" fill="#693393"/>
<path d="M0.887112 29.9756C0.678382 29.9756 0.508789 30.1413 0.508789 30.3453C0.508789 30.5493 0.678382 30.715 0.887112 30.715C1.09584 30.715 1.26544 30.5493 1.26544 30.3453C1.26544 30.1413 1.09584 29.9756 0.887112 29.9756ZM0.887112 30.545C0.77405 30.545 0.682731 30.4558 0.682731 30.3453C0.682731 30.2348 0.77405 30.1456 0.887112 30.1456C1.00017 30.1456 1.09149 30.2348 1.09149 30.3453C1.09149 30.4558 1.00017 30.545 0.887112 30.545Z" fill="#693393"/>
<path d="M9.82779 21.2048C9.61906 21.2048 9.44946 21.3706 9.44946 21.5745C9.44946 21.7785 9.61906 21.9442 9.82779 21.9442C10.0365 21.9442 10.2061 21.7785 10.2061 21.5745C10.2061 21.3706 10.0365 21.2048 9.82779 21.2048ZM9.82779 21.7743C9.71472 21.7743 9.6234 21.685 9.6234 21.5745C9.6234 21.464 9.71472 21.3748 9.82779 21.3748C9.94085 21.3748 10.0322 21.464 10.0322 21.5745C10.0322 21.685 9.94085 21.7743 9.82779 21.7743Z" fill="#693393"/>
<path d="M10.293 0.174313C10.0539 -0.0594064 9.66683 -0.0594064 9.43201 0.174313L0.178313 9.21713C-0.056508 9.4466 -0.056508 9.82905 0.178313 10.0585L9.43636 19.1013C9.67118 19.335 10.0625 19.335 10.2974 19.1013L19.5511 10.0585C19.7859 9.82905 19.7859 9.4466 19.5511 9.21713L10.293 0.174313ZM0.887125 9.98203C0.678395 9.98203 0.508802 9.8163 0.508802 9.61232C0.508802 9.40835 0.678395 9.23837 0.887125 9.23837C1.09586 9.23837 1.26545 9.4041 1.26545 9.61232C1.26545 9.82055 1.09586 9.98203 0.887125 9.98203ZM9.82773 18.7826C9.619 18.7826 9.44506 18.6169 9.44506 18.4087C9.44506 18.2004 9.61465 18.039 9.82773 18.039C10.0408 18.039 10.206 18.2047 10.206 18.4087C10.206 18.6126 10.0365 18.7826 9.82773 18.7826ZM9.82773 1.20693C9.619 1.20693 9.44506 1.0412 9.44506 0.832977C9.44506 0.624754 9.61465 0.463275 9.82773 0.463275C10.0408 0.463275 10.206 0.629003 10.206 0.832977C10.206 1.03695 10.0365 1.20693 9.82773 1.20693ZM18.8727 9.97778C18.664 9.97778 18.4944 9.81205 18.4944 9.60808C18.4944 9.4041 18.664 9.23412 18.8727 9.23412C19.0814 9.23412 19.251 9.39985 19.251 9.60808C19.251 9.8163 19.0814 9.97778 18.8727 9.97778Z" fill="#0088CB"/>
<path d="M9.86697 1.59273L1.65088 9.62158L9.86697 17.6504L18.0831 9.62158L9.86697 1.59273Z" fill="#DFE1E1"/>
<path d="M8.79084 1.19544L5.56836 4.34448L6.14336 4.90638L9.36584 1.75734L8.79084 1.19544Z" fill="#00467F"/>
<path d="M4.42633 5.42884L1.20386 8.57788L1.77886 9.13978L5.00134 5.99074L4.42633 5.42884Z" fill="#00467F"/>
<path d="M9.86259 1.5979L1.64819 9.6251H9.86259V1.5979Z" fill="#00528A"/>
<path d="M9.86255 1.5979L18.0769 9.6251H9.86255V1.5979Z" fill="#37A7DE"/>
<path d="M9.86259 17.6522L1.64819 9.625H9.86259V17.6522Z" fill="#007BC1"/>
<path d="M9.86255 17.6522L18.0769 9.625H9.86255V17.6522Z" fill="#95D4F5"/>
<path d="M15.3201 5.43029L14.7451 5.99219L17.9676 9.14123L18.5426 8.57933L15.3201 5.43029Z" fill="#00467F"/>
<path d="M10.9532 1.1964L10.3782 1.7583L13.6007 4.90734L14.1757 4.34544L10.9532 1.1964Z" fill="#00467F"/>
<path d="M6.14287 14.3863L5.56787 14.9482L8.79035 18.0973L9.36535 17.5354L6.14287 14.3863Z" fill="#00467F"/>
<path d="M1.77593 10.1525L1.20093 10.7144L4.4234 13.8634L4.99841 13.3015L1.77593 10.1525Z" fill="#00467F"/>
<path d="M17.9644 10.1556L14.7419 13.3047L15.3169 13.8666L18.5394 10.7175L17.9644 10.1556Z" fill="#00467F"/>
<path d="M13.6031 14.3861L10.3806 17.5352L10.9556 18.0971L14.1781 14.948L13.6031 14.3861Z" fill="#00467F"/>
<path d="M18.8727 9.23828C18.664 9.23828 18.4944 9.40401 18.4944 9.60798C18.4944 9.81196 18.664 9.97768 18.8727 9.97768C19.0814 9.97768 19.251 9.81196 19.251 9.60798C19.251 9.40401 19.0814 9.23828 18.8727 9.23828ZM18.8727 9.80771C18.7596 9.80771 18.6683 9.71847 18.6683 9.60798C18.6683 9.4975 18.7596 9.40826 18.8727 9.40826C18.9858 9.40826 19.0771 9.4975 19.0771 9.60798C19.0771 9.71847 18.9858 9.80771 18.8727 9.80771Z" fill="#006EB6"/>
<path d="M9.82779 18.0388C9.61906 18.0388 9.44946 18.2045 9.44946 18.4085C9.44946 18.6125 9.61906 18.7782 9.82779 18.7782C10.0365 18.7782 10.2061 18.6125 10.2061 18.4085C10.2061 18.2045 10.0365 18.0388 9.82779 18.0388ZM9.82779 18.6082C9.71472 18.6082 9.6234 18.519 9.6234 18.4085C9.6234 18.298 9.71472 18.2088 9.82779 18.2088C9.94085 18.2088 10.0322 18.298 10.0322 18.4085C10.0322 18.519 9.94085 18.6082 9.82779 18.6082Z" fill="#006EB6"/>
<path d="M0.887112 9.23828C0.678382 9.23828 0.508789 9.40401 0.508789 9.60798C0.508789 9.81196 0.678382 9.97768 0.887112 9.97768C1.09584 9.97768 1.26544 9.81196 1.26544 9.60798C1.26544 9.40401 1.09584 9.23828 0.887112 9.23828ZM0.887112 9.80771C0.77405 9.80771 0.682731 9.71847 0.682731 9.60798C0.682731 9.4975 0.77405 9.40826 0.887112 9.40826C1.00017 9.40826 1.09149 9.4975 1.09149 9.60798C1.09149 9.71847 1.00017 9.80771 0.887112 9.80771Z" fill="#006EB6"/>
<path d="M9.82779 0.467529C9.61906 0.467529 9.44946 0.633258 9.44946 0.837231C9.44946 1.0412 9.61906 1.20693 9.82779 1.20693C10.0365 1.20693 10.2061 1.0412 10.2061 0.837231C10.2061 0.633258 10.0365 0.467529 9.82779 0.467529ZM9.82779 1.03695C9.71472 1.03695 9.6234 0.947716 9.6234 0.837231C9.6234 0.726745 9.71472 0.637507 9.82779 0.637507C9.94085 0.637507 10.0322 0.726745 10.0322 0.837231C10.0322 0.947716 9.94085 1.03695 9.82779 1.03695Z" fill="#006EB6"/>
<path d="M31.814 0.174313C31.5792 -0.0594064 31.1878 -0.0594064 30.953 0.174313L21.6949 9.22138C21.4601 9.45085 21.4601 9.8333 21.6949 10.0628L30.953 19.1056C31.1878 19.3393 31.5792 19.3393 31.814 19.1056L41.0677 10.0628C41.3025 9.8333 41.3025 9.45085 41.0677 9.22138L31.814 0.174313ZM22.4211 9.98203C22.2124 9.98203 22.0428 9.8163 22.0428 9.61233C22.0428 9.40835 22.2124 9.23837 22.4211 9.23837C22.6299 9.23837 22.7994 9.4041 22.7994 9.61233C22.7994 9.82055 22.6299 9.98203 22.4211 9.98203ZM31.3617 18.7826C31.153 18.7826 30.979 18.6169 30.979 18.4087C30.979 18.2004 31.1486 18.039 31.3617 18.039C31.5748 18.039 31.74 18.2047 31.74 18.4087C31.74 18.6126 31.5705 18.7826 31.3617 18.7826ZM31.3617 1.20693C31.153 1.20693 30.979 1.0412 30.979 0.832977C30.979 0.624754 31.1486 0.463275 31.3617 0.463275C31.5748 0.463275 31.74 0.629003 31.74 0.832977C31.74 1.03695 31.5705 1.20693 31.3617 1.20693ZM40.4067 9.97778C40.198 9.97778 40.0284 9.81205 40.0284 9.60808C40.0284 9.4041 40.198 9.23412 40.4067 9.23412C40.6154 9.23412 40.785 9.39985 40.785 9.60808C40.785 9.8163 40.6154 9.97778 40.4067 9.97778Z" fill="#00B16E"/>
<path d="M31.3826 1.59371L23.1665 9.62256L31.3826 17.6514L39.5987 9.62256L31.3826 1.59371Z" fill="#DFE1E1"/>
<path d="M30.3065 1.20057L27.084 4.34961L27.659 4.91151L30.8815 1.76247L30.3065 1.20057Z" fill="#2C6248"/>
<path d="M25.9451 5.43104L22.7227 8.58008L23.2977 9.14198L26.5201 5.99294L25.9451 5.43104Z" fill="#2C6248"/>
<path d="M31.3833 1.5979L23.1689 9.6251H31.3833V1.5979Z" fill="#008B47"/>
<path d="M31.3833 1.5979L39.5977 9.6251H31.3833V1.5979Z" fill="#42BB8D"/>
<path d="M31.3833 17.6522L23.1689 9.625H31.3833V17.6522Z" fill="#00AB67"/>
<path d="M31.3833 17.6522L39.5977 9.625H31.3833V17.6522Z" fill="#96D2B6"/>
<path d="M36.8387 5.42834L36.2637 5.99023L39.4861 9.13927L40.0611 8.57738L36.8387 5.42834Z" fill="#2C6248"/>
<path d="M32.4761 1.19445L31.9011 1.75635L35.1236 4.90539L35.6986 4.34349L32.4761 1.19445Z" fill="#2C6248"/>
<path d="M27.6583 14.3873L27.0833 14.9492L30.3057 18.0983L30.8807 17.5364L27.6583 14.3873Z" fill="#2C6248"/>
<path d="M23.2957 10.1534L22.7207 10.7153L25.9432 13.8644L26.5182 13.3025L23.2957 10.1534Z" fill="#2C6248"/>
<path d="M39.4874 10.1581L36.2649 13.3071L36.8399 13.869L40.0624 10.72L39.4874 10.1581Z" fill="#2C6248"/>
<path d="M35.1187 14.3912L31.8962 17.5403L32.4712 18.1022L35.6937 14.9531L35.1187 14.3912Z" fill="#2C6248"/>
<path d="M40.4023 9.23828C40.1935 9.23828 40.0239 9.40401 40.0239 9.60798C40.0239 9.81196 40.1935 9.97768 40.4023 9.97768C40.611 9.97768 40.7806 9.81196 40.7806 9.60798C40.7806 9.40401 40.611 9.23828 40.4023 9.23828ZM40.4023 9.80771C40.2892 9.80771 40.1979 9.71847 40.1979 9.60798C40.1979 9.4975 40.2892 9.40826 40.4023 9.40826C40.5153 9.40826 40.6066 9.4975 40.6066 9.60798C40.6066 9.71847 40.5153 9.80771 40.4023 9.80771Z" fill="#00984E"/>
<path d="M31.3573 18.0388C31.1486 18.0388 30.979 18.2045 30.979 18.4085C30.979 18.6125 31.1486 18.7782 31.3573 18.7782C31.5661 18.7782 31.7357 18.6125 31.7357 18.4085C31.7357 18.2045 31.5661 18.0388 31.3573 18.0388ZM31.3573 18.6082C31.2443 18.6082 31.1529 18.519 31.1529 18.4085C31.1529 18.298 31.2443 18.2088 31.3573 18.2088C31.4704 18.2088 31.5617 18.298 31.5617 18.4085C31.5617 18.519 31.4704 18.6082 31.3573 18.6082Z" fill="#00984E"/>
<path d="M22.421 9.23828C22.2123 9.23828 22.0427 9.40401 22.0427 9.60798C22.0427 9.81196 22.2123 9.97768 22.421 9.97768C22.6298 9.97768 22.7994 9.81196 22.7994 9.60798C22.7994 9.40401 22.6298 9.23828 22.421 9.23828ZM22.421 9.80771C22.308 9.80771 22.2167 9.71847 22.2167 9.60798C22.2167 9.4975 22.308 9.40826 22.421 9.40826C22.5341 9.40826 22.6254 9.4975 22.6254 9.60798C22.6254 9.71847 22.5341 9.80771 22.421 9.80771Z" fill="#00984E"/>
<path d="M31.3573 0.467529C31.1486 0.467529 30.979 0.633258 30.979 0.837231C30.979 1.0412 31.1486 1.20693 31.3573 1.20693C31.5661 1.20693 31.7357 1.0412 31.7357 0.837231C31.7357 0.633258 31.5661 0.467529 31.3573 0.467529ZM31.3573 1.03695C31.2443 1.03695 31.1529 0.947716 31.1529 0.837231C31.1529 0.726745 31.2443 0.637507 31.3573 0.637507C31.4704 0.637507 31.5617 0.726745 31.5617 0.837231C31.5617 0.947716 31.4704 1.03695 31.3573 1.03695Z" fill="#00984E"/>
<path d="M21.0903 10.53C20.8512 10.2963 20.4641 10.2963 20.2293 10.53L10.9713 19.5771C10.7365 19.8066 10.7365 20.189 10.9713 20.4185L20.2293 29.4613C20.4641 29.6908 20.8555 29.6908 21.0903 29.4613L30.344 20.4185C30.5789 20.189 30.5789 19.8066 30.344 19.5771L21.0903 10.53ZM11.6844 20.3377C11.4757 20.3377 11.3061 20.172 11.3061 19.968C11.3061 19.7641 11.4757 19.5941 11.6844 19.5941C11.8932 19.5941 12.0628 19.7598 12.0628 19.968C12.0628 20.1763 11.8932 20.3377 11.6844 20.3377ZM20.625 29.1383C20.4163 29.1383 20.2424 28.9726 20.2424 28.7644C20.2424 28.5562 20.412 28.3947 20.625 28.3947C20.8381 28.3947 21.0034 28.5604 21.0034 28.7644C21.0034 28.9684 20.8338 29.1383 20.625 29.1383ZM20.625 11.5626C20.4163 11.5626 20.2424 11.3969 20.2424 11.1887C20.2424 10.9805 20.412 10.819 20.625 10.819C20.8381 10.819 21.0034 10.9847 21.0034 11.1887C21.0034 11.3927 20.8338 11.5626 20.625 11.5626ZM29.67 20.3335C29.4613 20.3335 29.2917 20.1678 29.2917 19.9638C29.2917 19.7598 29.4613 19.5898 29.67 19.5898C29.8787 19.5898 30.0483 19.7556 30.0483 19.9638C30.0483 20.172 29.8787 20.3335 29.67 20.3335Z" fill="#D52A2C"/>
<path d="M20.6599 11.9524L12.4438 19.9812L20.6599 28.0101L28.876 19.9812L20.6599 11.9524Z" fill="#DFE1E1"/>
<path d="M20.6599 11.9536L12.4412 19.9808H20.6599V11.9536Z" fill="#B71C21"/>
<path d="M20.6599 11.9536L28.8743 19.9808H20.6599V11.9536Z" fill="#ED5651"/>
<path d="M20.6599 28.0082L12.4412 19.981H20.6599V28.0082Z" fill="#DB3033"/>
<path d="M20.6599 28.0082L28.8743 19.981H20.6599V28.0082Z" fill="#F7A39E"/>
<path d="M19.5806 11.5563L16.3582 14.7053L16.9332 15.2672L20.1556 12.1182L19.5806 11.5563Z" fill="#8A1B3E"/>
<path d="M15.2164 15.7897L11.9939 18.9387L12.5689 19.5006L15.7914 16.3516L15.2164 15.7897Z" fill="#8A1B3E"/>
<path d="M26.1128 15.7899L25.5378 16.3518L28.7603 19.5008L29.3353 18.9389L26.1128 15.7899Z" fill="#8A1B3E"/>
<path d="M21.7535 11.5531L21.1785 12.115L24.4009 15.264L24.9759 14.7021L21.7535 11.5531Z" fill="#8A1B3E"/>
<path d="M16.9356 24.746L16.3606 25.3079L19.5831 28.4569L20.1581 27.895L16.9356 24.746Z" fill="#8A1B3E"/>
<path d="M12.5733 20.5121L11.9983 21.074L15.2208 24.223L15.7958 23.6611L12.5733 20.5121Z" fill="#8A1B3E"/>
<path d="M28.7647 20.5167L25.5422 23.6658L26.1172 24.2277L29.3397 21.0786L28.7647 20.5167Z" fill="#8A1B3E"/>
<path d="M24.3961 24.7457L21.1736 27.8948L21.7486 28.4567L24.9711 25.3076L24.3961 24.7457Z" fill="#8A1B3E"/>
<path d="M29.6657 19.5984C29.4569 19.5984 29.2874 19.7641 29.2874 19.9681C29.2874 20.1721 29.4569 20.3378 29.6657 20.3378C29.8744 20.3378 30.044 20.1721 30.044 19.9681C30.044 19.7641 29.8744 19.5984 29.6657 19.5984ZM29.6657 20.1678C29.5526 20.1678 29.4613 20.0786 29.4613 19.9681C29.4613 19.8576 29.5526 19.7684 29.6657 19.7684C29.7787 19.7684 29.8701 19.8576 29.8701 19.9681C29.8701 20.0786 29.7787 20.1678 29.6657 20.1678Z" fill="#B71C21"/>
<path d="M20.6251 28.3989C20.4164 28.3989 20.2468 28.5647 20.2468 28.7686C20.2468 28.9726 20.4164 29.1383 20.6251 29.1383C20.8339 29.1383 21.0035 28.9726 21.0035 28.7686C21.0035 28.5647 20.8339 28.3989 20.6251 28.3989ZM20.6251 28.9683C20.5121 28.9683 20.4208 28.8791 20.4208 28.7686C20.4208 28.6581 20.5121 28.5689 20.6251 28.5689C20.7382 28.5689 20.8295 28.6581 20.8295 28.7686C20.8295 28.8791 20.7382 28.9683 20.6251 28.9683Z" fill="#B71C21"/>
<path d="M11.6845 19.5984C11.4757 19.5984 11.3062 19.7641 11.3062 19.9681C11.3062 20.1721 11.4757 20.3378 11.6845 20.3378C11.8932 20.3378 12.0628 20.1721 12.0628 19.9681C12.0628 19.7641 11.8932 19.5984 11.6845 19.5984ZM11.6845 20.1678C11.5714 20.1678 11.4801 20.0786 11.4801 19.9681C11.4801 19.8576 11.5714 19.7684 11.6845 19.7684C11.7975 19.7684 11.8889 19.8576 11.8889 19.9681C11.8889 20.0786 11.7975 20.1678 11.6845 20.1678Z" fill="#B71C21"/>
<path d="M20.6251 10.8232C20.4164 10.8232 20.2468 10.989 20.2468 11.1929C20.2468 11.3969 20.4164 11.5626 20.6251 11.5626C20.8339 11.5626 21.0035 11.3969 21.0035 11.1929C21.0035 10.989 20.8339 10.8232 20.6251 10.8232ZM20.6251 11.3927C20.5121 11.3927 20.4208 11.3034 20.4208 11.1929C20.4208 11.0825 20.5121 10.9932 20.6251 10.9932C20.7382 10.9932 20.8295 11.0825 20.8295 11.1929C20.8295 11.3034 20.7382 11.3927 20.6251 11.3927Z" fill="#B71C21"/>
</g>
<defs>
<clipPath id="clip0_6507_2921">
<rect width="238" height="40" fill="white"/>
</clipPath>
</defs>
</svg>
